{
    "asset" : {
        "generator" : "Khronos glTF Blender I/O v0.9.36",
        "version" : "2.0"
    },
    "scene" : 0,
    "scenes" : [
        {
            "name" : "Scene",
            "nodes" : [
                0,
                1,
                2,
                3,
                4,
                5,
                6,
                7,
                8
            ]
        }
    ],
    "nodes" : [
        {
            "mesh" : 0,
            "name" : "Cylinder.001",
            "translation" : [
                0,
                0,
                0.3569507300853729
            ]
        },
        {
            "mesh" : 1,
            "name" : "Cylinder.004"
        },
        {
            "mesh" : 2,
            "name" : "Cube",
            "translation" : [
                0,
                0,
                0.3569507300853729
            ]
        },
        {
            "mesh" : 3,
            "name" : "Cube.001",
            "translation" : [
                0,
                0,
                0.3569507300853729
            ]
        },
        {
            "mesh" : 4,
            "name" : "Cube.002",
            "translation" : [
                0,
                0,
                0.3569507300853729
            ]
        },
        {
            "mesh" : 5,
            "name" : "Cube.003",
            "translation" : [
                0,
                0,
                0.3569507300853729
            ]
        },
        {
            "mesh" : 6,
            "name" : "Cylinder.005"
        },
        {
            "mesh" : 7,
            "name" : "Cylinder.000"
        },
        {
            "mesh" : 8,
            "name" : "Cone"
        }
    ],
    "materials" : [
        {
            "alphaMode" : "BLEND",
            "doubleSided" : true,
            "name" : "VRayMtl1SG_COLOR_0",
            "pbrMetallicRoughness" : {
                "metallicFactor" : 0,
                "roughnessFactor" : 1
            }
        }
    ],
    "meshes" : [
        {
            "name" : "Cylinder.001",
            "primitives" : [
                {
                    "attributes" : {
                        "POSITION" : 0,
                        "NORMAL" : 1,
                        "TEXCOORD_0" : 2,
                        "COLOR_0" : 3
                    },
                    "indices" : 4,
                    "material" : 0
                }
            ]
        },
        {
            "name" : "Cylinder.004",
            "primitives" : [
                {
                    "attributes" : {
                        "POSITION" : 5,
                        "NORMAL" : 6,
                        "TEXCOORD_0" : 7,
                        "COLOR_0" : 8
                    },
                    "indices" : 9,
                    "material" : 0
                }
            ]
        },
        {
            "name" : "Cube",
            "primitives" : [
                {
                    "attributes" : {
                        "POSITION" : 10,
                        "NORMAL" : 11,
                        "TEXCOORD_0" : 12,
                        "COLOR_0" : 13
                    },
                    "indices" : 14
                }
            ]
        },
        {
            "name" : "Cube.001",
            "primitives" : [
                {
                    "attributes" : {
                        "POSITION" : 15,
                        "NORMAL" : 16,
                        "TEXCOORD_0" : 17,
                        "COLOR_0" : 18
                    },
                    "indices" : 14
                }
            ]
        },
        {
            "name" : "Cube.002",
            "primitives" : [
                {
                    "attributes" : {
                        "POSITION" : 19,
                        "NORMAL" : 20,
                        "TEXCOORD_0" : 21,
                        "COLOR_0" : 22
                    },
                    "indices" : 14
                }
            ]
        },
        {
            "name" : "Cube.003",
            "primitives" : [
                {
                    "attributes" : {
                        "POSITION" : 23,
                        "NORMAL" : 24,
                        "TEXCOORD_0" : 25,
                        "COLOR_0" : 26
                    },
                    "indices" : 14
                }
            ]
        },
        {
            "name" : "Cylinder.005",
            "primitives" : [
                {
                    "attributes" : {
                        "POSITION" : 27,
                        "NORMAL" : 28,
                        "TEXCOORD_0" : 29,
                        "COLOR_0" : 30
                    },
                    "indices" : 31,
                    "material" : 0
                }
            ]
        },
        {
            "name" : "Cylinder.007",
            "primitives" : [
                {
                    "attributes" : {
                        "POSITION" : 32,
                        "NORMAL" : 33,
                        "TEXCOORD_0" : 34,
                        "COLOR_0" : 35
                    },
                    "indices" : 31,
                    "material" : 0
                }
            ]
        },
        {
            "name" : "Cone",
            "primitives" : [
                {
                    "attributes" : {
                        "POSITION" : 36,
                        "NORMAL" : 37,
                        "TEXCOORD_0" : 38,
                        "COLOR_0" : 39
                    },
                    "indices" : 40
                }
            ]
        }
    ],
    "accessors" : [
        {
            "bufferView" : 0,
            "componentType" : 5126,
            "count" : 90,
            "max" : [
                0.422396183013916,
                0.375765323638916,
                9.070122718811035
            ],
            "min" : [
                -0.3719956576824188,
                -0.38376638293266296,
                8.093892097473145
            ],
            "type" : "VEC3"
        },
        {
            "bufferView" : 1,
            "componentType" : 5126,
            "count" : 90,
            "type" : "VEC3"
        },
        {
            "bufferView" : 2,
            "componentType" : 5126,
            "count" : 90,
            "type" : "VEC2"
        },
        {
            "bufferView" : 3,
            "componentType" : 5126,
            "count" : 90,
            "type" : "VEC4"
        },
        {
            "bufferView" : 4,
            "componentType" : 5123,
            "count" : 90,
            "type" : "SCALAR"
        },
        {
            "bufferView" : 5,
            "componentType" : 5126,
            "count" : 84,
            "max" : [
                1.8774954080581665,
                1.784550666809082,
                3.221332311630249
            ],
            "min" : [
                -1.7501858472824097,
                -1.893540620803833,
                -5.738935470581055
            ],
            "type" : "VEC3"
        },
        {
            "bufferView" : 6,
            "componentType" : 5126,
            "count" : 84,
            "type" : "VEC3"
        },
        {
            "bufferView" : 7,
            "componentType" : 5126,
            "count" : 84,
            "type" : "VEC2"
        },
        {
            "bufferView" : 8,
            "componentType" : 5126,
            "count" : 84,
            "type" : "VEC4"
        },
        {
            "bufferView" : 9,
            "componentType" : 5123,
            "count" : 84,
            "type" : "SCALAR"
        },
        {
            "bufferView" : 10,
            "componentType" : 5126,
            "count" : 36,
            "max" : [
                0.09946654736995697,
                3.4833555221557617,
                8.401751518249512
            ],
            "min" : [
                -0.03395773470401764,
                -0.09128069877624512,
                4.336185455322266
            ],
            "type" : "VEC3"
        },
        {
            "bufferView" : 11,
            "componentType" : 5126,
            "count" : 36,
            "type" : "VEC3"
        },
        {
            "bufferView" : 12,
            "componentType" : 5126,
            "count" : 36,
            "type" : "VEC2"
        },
        {
            "bufferView" : 13,
            "componentType" : 5126,
            "count" : 36,
            "type" : "VEC4"
        },
        {
            "bufferView" : 14,
            "componentType" : 5123,
            "count" : 36,
            "type" : "SCALAR"
        },
        {
            "bufferView" : 15,
            "componentType" : 5126,
            "count" : 36,
            "max" : [
                3.5794012546539307,
                0.03657161071896553,
                8.453332901000977
            ],
            "min" : [
                0.00476527214050293,
                -0.09685282409191132,
                4.3877668380737305
            ],
            "type" : "VEC3"
        },
        {
            "bufferView" : 16,
            "componentType" : 5126,
            "count" : 36,
            "type" : "VEC3"
        },
        {
            "bufferView" : 17,
            "componentType" : 5126,
            "count" : 36,
            "type" : "VEC2"
        },
        {
            "bufferView" : 18,
            "componentType" : 5126,
            "count" : 36,
            "type" : "VEC4"
        },
        {
            "bufferView" : 19,
            "componentType" : 5126,
            "count" : 36,
            "max" : [
                0.08969958126544952,
                0.03344261646270752,
                8.401751518249512
            ],
            "min" : [
                -0.043725237250328064,
                -3.5411934852600098,
                4.336185455322266
            ],
            "type" : "VEC3"
        },
        {
            "bufferView" : 20,
            "componentType" : 5126,
            "count" : 36,
            "type" : "VEC3"
        },
        {
            "bufferView" : 21,
            "componentType" : 5126,
            "count" : 36,
            "type" : "VEC2"
        },
        {
            "bufferView" : 22,
            "componentType" : 5126,
            "count" : 36,
            "type" : "VEC4"
        },
        {
            "bufferView" : 23,
            "componentType" : 5126,
            "count" : 36,
            "max" : [
                0.05097603797912598,
                0.03901452198624611,
                8.453332901000977
            ],
            "min" : [
                -3.5236599445343018,
                -0.09440991282463074,
                4.3877668380737305
            ],
            "type" : "VEC3"
        },
        {
            "bufferView" : 24,
            "componentType" : 5126,
            "count" : 36,
            "type" : "VEC3"
        },
        {
            "bufferView" : 25,
            "componentType" : 5126,
            "count" : 36,
            "type" : "VEC2"
        },
        {
            "bufferView" : 26,
            "componentType" : 5126,
            "count" : 36,
            "type" : "VEC4"
        },
        {
            "bufferView" : 27,
            "componentType" : 5126,
            "count" : 178,
            "max" : [
                11.43891716003418,
                0.17232584953308105,
                -1.2733898162841797
            ],
            "min" : [
                1.6297540664672852,
                -3.461772918701172,
                -4.366112232208252
            ],
            "type" : "VEC3"
        },
        {
            "bufferView" : 28,
            "componentType" : 5126,
            "count" : 178,
            "type" : "VEC3"
        },
        {
            "bufferView" : 29,
            "componentType" : 5126,
            "count" : 178,
            "type" : "VEC2"
        },
        {
            "bufferView" : 30,
            "componentType" : 5126,
            "count" : 178,
            "type" : "VEC4"
        },
        {
            "bufferView" : 31,
            "componentType" : 5123,
            "count" : 180,
            "type" : "SCALAR"
        },
        {
            "bufferView" : 32,
            "componentType" : 5126,
            "count" : 178,
            "max" : [
                -1.5745630264282227,
                0.17232605814933777,
                -1.2878522872924805
            ],
            "min" : [
                -11.383726119995117,
                -3.461773633956909,
                -4.380574703216553
            ],
            "type" : "VEC3"
        },
        {
            "bufferView" : 33,
            "componentType" : 5126,
            "count" : 178,
            "type" : "VEC3"
        },
        {
            "bufferView" : 34,
            "componentType" : 5126,
            "count" : 178,
            "type" : "VEC2"
        },
        {
            "bufferView" : 35,
            "componentType" : 5126,
            "count" : 178,
            "type" : "VEC4"
        },
        {
            "bufferView" : 36,
            "componentType" : 5126,
            "count" : 138,
            "max" : [
                4.409951686859131,
                4.346999645233154,
                4.9448676109313965
            ],
            "min" : [
                -4.284047603607178,
                -4.346999645233154,
                2.2164993286132812
            ],
            "type" : "VEC3"
        },
        {
            "bufferView" : 37,
            "componentType" : 5126,
            "count" : 138,
            "type" : "VEC3"
        },
        {
            "bufferView" : 38,
            "componentType" : 5126,
            "count" : 138,
            "type" : "VEC2"
        },
        {
            "bufferView" : 39,
            "componentType" : 5126,
            "count" : 138,
            "type" : "VEC4"
        },
        {
            "bufferView" : 40,
            "componentType" : 5123,
            "count" : 138,
            "type" : "SCALAR"
        }
    ],
    "bufferViews" : [
        {
            "buffer" : 0,
            "byteLength" : 1080,
            "byteOffset" : 0
        },
        {
            "buffer" : 0,
            "byteLength" : 1080,
            "byteOffset" : 1080
        },
        {
            "buffer" : 0,
            "byteLength" : 720,
            "byteOffset" : 2160
        },
        {
            "buffer" : 0,
            "byteLength" : 1440,
            "byteOffset" : 2880
        },
        {
            "buffer" : 0,
            "byteLength" : 180,
            "byteOffset" : 4320
        },
        {
            "buffer" : 0,
            "byteLength" : 1008,
            "byteOffset" : 4500
        },
        {
            "buffer" : 0,
            "byteLength" : 1008,
            "byteOffset" : 5508
        },
        {
            "buffer" : 0,
            "byteLength" : 672,
            "byteOffset" : 6516
        },
        {
            "buffer" : 0,
            "byteLength" : 1344,
            "byteOffset" : 7188
        },
        {
            "buffer" : 0,
            "byteLength" : 168,
            "byteOffset" : 8532
        },
        {
            "buffer" : 0,
            "byteLength" : 432,
            "byteOffset" : 8700
        },
        {
            "buffer" : 0,
            "byteLength" : 432,
            "byteOffset" : 9132
        },
        {
            "buffer" : 0,
            "byteLength" : 288,
            "byteOffset" : 9564
        },
        {
            "buffer" : 0,
            "byteLength" : 576,
            "byteOffset" : 9852
        },
        {
            "buffer" : 0,
            "byteLength" : 72,
            "byteOffset" : 10428
        },
        {
            "buffer" : 0,
            "byteLength" : 432,
            "byteOffset" : 10500
        },
        {
            "buffer" : 0,
            "byteLength" : 432,
            "byteOffset" : 10932
        },
        {
            "buffer" : 0,
            "byteLength" : 288,
            "byteOffset" : 11364
        },
        {
            "buffer" : 0,
            "byteLength" : 576,
            "byteOffset" : 11652
        },
        {
            "buffer" : 0,
            "byteLength" : 432,
            "byteOffset" : 12228
        },
        {
            "buffer" : 0,
            "byteLength" : 432,
            "byteOffset" : 12660
        },
        {
            "buffer" : 0,
            "byteLength" : 288,
            "byteOffset" : 13092
        },
        {
            "buffer" : 0,
            "byteLength" : 576,
            "byteOffset" : 13380
        },
        {
            "buffer" : 0,
            "byteLength" : 432,
            "byteOffset" : 13956
        },
        {
            "buffer" : 0,
            "byteLength" : 432,
            "byteOffset" : 14388
        },
        {
            "buffer" : 0,
            "byteLength" : 288,
            "byteOffset" : 14820
        },
        {
            "buffer" : 0,
            "byteLength" : 576,
            "byteOffset" : 15108
        },
        {
            "buffer" : 0,
            "byteLength" : 2136,
            "byteOffset" : 15684
        },
        {
            "buffer" : 0,
            "byteLength" : 2136,
            "byteOffset" : 17820
        },
        {
            "buffer" : 0,
            "byteLength" : 1424,
            "byteOffset" : 19956
        },
        {
            "buffer" : 0,
            "byteLength" : 2848,
            "byteOffset" : 21380
        },
        {
            "buffer" : 0,
            "byteLength" : 360,
            "byteOffset" : 24228
        },
        {
            "buffer" : 0,
            "byteLength" : 2136,
            "byteOffset" : 24588
        },
        {
            "buffer" : 0,
            "byteLength" : 2136,
            "byteOffset" : 26724
        },
        {
            "buffer" : 0,
            "byteLength" : 1424,
            "byteOffset" : 28860
        },
        {
            "buffer" : 0,
            "byteLength" : 2848,
            "byteOffset" : 30284
        },
        {
            "buffer" : 0,
            "byteLength" : 1656,
            "byteOffset" : 33132
        },
        {
            "buffer" : 0,
            "byteLength" : 1656,
            "byteOffset" : 34788
        },
        {
            "buffer" : 0,
            "byteLength" : 1104,
            "byteOffset" : 36444
        },
        {
            "buffer" : 0,
            "byteLength" : 2208,
            "byteOffset" : 37548
        },
        {
            "buffer" : 0,
            "byteLength" : 276,
            "byteOffset" : 39756
        }
    ],
    "buffers" : [
        {
            "byteLength" : 40032,
            "uri" : "data:application/octet-stream;base64,"
        }
    ]
}
