{
    "asset" : {
        "generator" : "Khronos glTF Blender I/O v0.9.36",
        "version" : "2.0"
    },
    "scene" : 0,
    "scenes" : [
        {
            "name" : "Scene",
            "nodes" : [
                0,
                1,
                2,
                3,
                4,
                5,
                6,
                7,
                8,
                9
            ]
        }
    ],
    "nodes" : [
        {
            "mesh" : 0,
            "name" : "Cylinder.001"
        },
        {
            "mesh" : 1,
            "name" : "Cube"
        },
        {
            "mesh" : 2,
            "name" : "Cube.001"
        },
        {
            "mesh" : 3,
            "name" : "Cube.002"
        },
        {
            "mesh" : 4,
            "name" : "Cube.003"
        },
        {
            "mesh" : 5,
            "name" : "Cylinder.005"
        },
        {
            "mesh" : 6,
            "name" : "Cylinder.000"
        },
        {
            "mesh" : 7,
            "name" : "Sphere"
        },
        {
            "mesh" : 8,
            "name" : "Cylinder"
        },
        {
            "mesh" : 9,
            "name" : "Cylinder.002"
        }
    ],
    "materials" : [
        {
            "alphaMode" : "BLEND",
            "doubleSided" : true,
            "name" : "VRayMtl1SG_COLOR_0",
            "pbrMetallicRoughness" : {
                "metallicFactor" : 0,
                "roughnessFactor" : 1
            }
        }
    ],
    "meshes" : [
        {
            "name" : "Cylinder.001",
            "primitives" : [
                {
                    "attributes" : {
                        "POSITION" : 0,
                        "NORMAL" : 1,
                        "TEXCOORD_0" : 2,
                        "COLOR_0" : 3
                    },
                    "indices" : 4,
                    "material" : 0
                }
            ]
        },
        {
            "name" : "Cube",
            "primitives" : [
                {
                    "attributes" : {
                        "POSITION" : 5,
                        "NORMAL" : 6,
                        "TEXCOORD_0" : 7,
                        "COLOR_0" : 8
                    },
                    "indices" : 9
                }
            ]
        },
        {
            "name" : "Cube.001",
            "primitives" : [
                {
                    "attributes" : {
                        "POSITION" : 10,
                        "NORMAL" : 11,
                        "TEXCOORD_0" : 12,
                        "COLOR_0" : 13
                    },
                    "indices" : 9
                }
            ]
        },
        {
            "name" : "Cube.002",
            "primitives" : [
                {
                    "attributes" : {
                        "POSITION" : 14,
                        "NORMAL" : 15,
                        "TEXCOORD_0" : 16,
                        "COLOR_0" : 17
                    },
                    "indices" : 9
                }
            ]
        },
        {
            "name" : "Cube.003",
            "primitives" : [
                {
                    "attributes" : {
                        "POSITION" : 18,
                        "NORMAL" : 19,
                        "TEXCOORD_0" : 20,
                        "COLOR_0" : 21
                    },
                    "indices" : 9
                }
            ]
        },
        {
            "name" : "Cylinder.005",
            "primitives" : [
                {
                    "attributes" : {
                        "POSITION" : 22,
                        "NORMAL" : 23,
                        "TEXCOORD_0" : 24,
                        "COLOR_0" : 25
                    },
                    "indices" : 26,
                    "material" : 0
                }
            ]
        },
        {
            "name" : "Cylinder.007",
            "primitives" : [
                {
                    "attributes" : {
                        "POSITION" : 27,
                        "NORMAL" : 28,
                        "TEXCOORD_0" : 29,
                        "COLOR_0" : 30
                    },
                    "indices" : 26,
                    "material" : 0
                }
            ]
        },
        {
            "name" : "Sphere.001",
            "primitives" : [
                {
                    "attributes" : {
                        "POSITION" : 31,
                        "NORMAL" : 32,
                        "TEXCOORD_0" : 33,
                        "COLOR_0" : 34
                    },
                    "indices" : 35
                }
            ]
        },
        {
            "name" : "Cylinder",
            "primitives" : [
                {
                    "attributes" : {
                        "POSITION" : 36,
                        "NORMAL" : 37,
                        "TEXCOORD_0" : 38,
                        "COLOR_0" : 39
                    },
                    "indices" : 40
                }
            ]
        },
        {
            "name" : "Cylinder.002",
            "primitives" : [
                {
                    "attributes" : {
                        "POSITION" : 41,
                        "NORMAL" : 42,
                        "TEXCOORD_0" : 43,
                        "COLOR_0" : 44
                    },
                    "indices" : 45
                }
            ]
        }
    ],
    "accessors" : [
        {
            "bufferView" : 0,
            "componentType" : 5126,
            "count" : 90,
            "max" : [
                0.422396183013916,
                0.375765323638916,
                9.05370807647705
            ],
            "min" : [
                -0.3719956576824188,
                -0.38376638293266296,
                8.077478408813477
            ],
            "type" : "VEC3"
        },
        {
            "bufferView" : 1,
            "componentType" : 5126,
            "count" : 90,
            "type" : "VEC3"
        },
        {
            "bufferView" : 2,
            "componentType" : 5126,
            "count" : 90,
            "type" : "VEC2"
        },
        {
            "bufferView" : 3,
            "componentType" : 5126,
            "count" : 90,
            "type" : "VEC4"
        },
        {
            "bufferView" : 4,
            "componentType" : 5123,
            "count" : 90,
            "type" : "SCALAR"
        },
        {
            "bufferView" : 5,
            "componentType" : 5126,
            "count" : 36,
            "max" : [
                0.09946654736995697,
                3.4833555221557617,
                8.385336875915527
            ],
            "min" : [
                -0.03395773470401764,
                -0.09128069877624512,
                4.319771766662598
            ],
            "type" : "VEC3"
        },
        {
            "bufferView" : 6,
            "componentType" : 5126,
            "count" : 36,
            "type" : "VEC3"
        },
        {
            "bufferView" : 7,
            "componentType" : 5126,
            "count" : 36,
            "type" : "VEC2"
        },
        {
            "bufferView" : 8,
            "componentType" : 5126,
            "count" : 36,
            "type" : "VEC4"
        },
        {
            "bufferView" : 9,
            "componentType" : 5123,
            "count" : 36,
            "type" : "SCALAR"
        },
        {
            "bufferView" : 10,
            "componentType" : 5126,
            "count" : 36,
            "max" : [
                3.5794012546539307,
                0.03657161071896553,
                8.436918258666992
            ],
            "min" : [
                0.00476527214050293,
                -0.09685282409191132,
                4.3713531494140625
            ],
            "type" : "VEC3"
        },
        {
            "bufferView" : 11,
            "componentType" : 5126,
            "count" : 36,
            "type" : "VEC3"
        },
        {
            "bufferView" : 12,
            "componentType" : 5126,
            "count" : 36,
            "type" : "VEC2"
        },
        {
            "bufferView" : 13,
            "componentType" : 5126,
            "count" : 36,
            "type" : "VEC4"
        },
        {
            "bufferView" : 14,
            "componentType" : 5126,
            "count" : 36,
            "max" : [
                0.08969958126544952,
                0.03344261646270752,
                8.385336875915527
            ],
            "min" : [
                -0.043725237250328064,
                -3.5411934852600098,
                4.319771766662598
            ],
            "type" : "VEC3"
        },
        {
            "bufferView" : 15,
            "componentType" : 5126,
            "count" : 36,
            "type" : "VEC3"
        },
        {
            "bufferView" : 16,
            "componentType" : 5126,
            "count" : 36,
            "type" : "VEC2"
        },
        {
            "bufferView" : 17,
            "componentType" : 5126,
            "count" : 36,
            "type" : "VEC4"
        },
        {
            "bufferView" : 18,
            "componentType" : 5126,
            "count" : 36,
            "max" : [
                0.05097603797912598,
                0.03901452198624611,
                8.436918258666992
            ],
            "min" : [
                -3.5236599445343018,
                -0.09440991282463074,
                4.3713531494140625
            ],
            "type" : "VEC3"
        },
        {
            "bufferView" : 19,
            "componentType" : 5126,
            "count" : 36,
            "type" : "VEC3"
        },
        {
            "bufferView" : 20,
            "componentType" : 5126,
            "count" : 36,
            "type" : "VEC2"
        },
        {
            "bufferView" : 21,
            "componentType" : 5126,
            "count" : 36,
            "type" : "VEC4"
        },
        {
            "bufferView" : 22,
            "componentType" : 5126,
            "count" : 178,
            "max" : [
                11.43891716003418,
                0.17232584953308105,
                -1.2733898162841797
            ],
            "min" : [
                1.6297540664672852,
                -3.461772918701172,
                -4.366112232208252
            ],
            "type" : "VEC3"
        },
        {
            "bufferView" : 23,
            "componentType" : 5126,
            "count" : 178,
            "type" : "VEC3"
        },
        {
            "bufferView" : 24,
            "componentType" : 5126,
            "count" : 178,
            "type" : "VEC2"
        },
        {
            "bufferView" : 25,
            "componentType" : 5126,
            "count" : 178,
            "type" : "VEC4"
        },
        {
            "bufferView" : 26,
            "componentType" : 5123,
            "count" : 180,
            "type" : "SCALAR"
        },
        {
            "bufferView" : 27,
            "componentType" : 5126,
            "count" : 178,
            "max" : [
                -1.5745630264282227,
                0.17232605814933777,
                -1.2878522872924805
            ],
            "min" : [
                -11.383726119995117,
                -3.461773633956909,
                -4.380574703216553
            ],
            "type" : "VEC3"
        },
        {
            "bufferView" : 28,
            "componentType" : 5126,
            "count" : 178,
            "type" : "VEC3"
        },
        {
            "bufferView" : 29,
            "componentType" : 5126,
            "count" : 178,
            "type" : "VEC2"
        },
        {
            "bufferView" : 30,
            "componentType" : 5126,
            "count" : 178,
            "type" : "VEC4"
        },
        {
            "bufferView" : 31,
            "componentType" : 5126,
            "count" : 2304,
            "max" : [
                4.197808742523193,
                4.167513847351074,
                5.172434329986572
            ],
            "min" : [
                -4.202191352844238,
                -4.232487201690674,
                3.0309696197509766
            ],
            "type" : "VEC3"
        },
        {
            "bufferView" : 32,
            "componentType" : 5126,
            "count" : 2304,
            "type" : "VEC3"
        },
        {
            "bufferView" : 33,
            "componentType" : 5126,
            "count" : 2304,
            "type" : "VEC2"
        },
        {
            "bufferView" : 34,
            "componentType" : 5126,
            "count" : 2304,
            "type" : "VEC4"
        },
        {
            "bufferView" : 35,
            "componentType" : 5123,
            "count" : 2304,
            "type" : "SCALAR"
        },
        {
            "bufferView" : 36,
            "componentType" : 5126,
            "count" : 276,
            "max" : [
                1.8709211349487305,
                1.7438087463378906,
                3.2676005363464355
            ],
            "min" : [
                -1.7690787315368652,
                -1.896191120147705,
                -5.80517053604126
            ],
            "type" : "VEC3"
        },
        {
            "bufferView" : 37,
            "componentType" : 5126,
            "count" : 276,
            "type" : "VEC3"
        },
        {
            "bufferView" : 38,
            "componentType" : 5126,
            "count" : 276,
            "type" : "VEC2"
        },
        {
            "bufferView" : 39,
            "componentType" : 5126,
            "count" : 276,
            "type" : "VEC4"
        },
        {
            "bufferView" : 40,
            "componentType" : 5123,
            "count" : 276,
            "type" : "SCALAR"
        },
        {
            "bufferView" : 41,
            "componentType" : 5126,
            "count" : 66,
            "max" : [
                1.8709211349487305,
                1.7438087463378906,
                3.2769718170166016
            ],
            "min" : [
                -1.7690787315368652,
                -1.896191120147705,
                3.2769718170166016
            ],
            "type" : "VEC3"
        },
        {
            "bufferView" : 42,
            "componentType" : 5126,
            "count" : 66,
            "type" : "VEC3"
        },
        {
            "bufferView" : 43,
            "componentType" : 5126,
            "count" : 66,
            "type" : "VEC2"
        },
        {
            "bufferView" : 44,
            "componentType" : 5126,
            "count" : 66,
            "type" : "VEC4"
        },
        {
            "bufferView" : 45,
            "componentType" : 5123,
            "count" : 66,
            "type" : "SCALAR"
        }
    ],
    "bufferViews" : [
        {
            "buffer" : 0,
            "byteLength" : 1080,
            "byteOffset" : 0
        },
        {
            "buffer" : 0,
            "byteLength" : 1080,
            "byteOffset" : 1080
        },
        {
            "buffer" : 0,
            "byteLength" : 720,
            "byteOffset" : 2160
        },
        {
            "buffer" : 0,
            "byteLength" : 1440,
            "byteOffset" : 2880
        },
        {
            "buffer" : 0,
            "byteLength" : 180,
            "byteOffset" : 4320
        },
        {
            "buffer" : 0,
            "byteLength" : 432,
            "byteOffset" : 4500
        },
        {
            "buffer" : 0,
            "byteLength" : 432,
            "byteOffset" : 4932
        },
        {
            "buffer" : 0,
            "byteLength" : 288,
            "byteOffset" : 5364
        },
        {
            "buffer" : 0,
            "byteLength" : 576,
            "byteOffset" : 5652
        },
        {
            "buffer" : 0,
            "byteLength" : 72,
            "byteOffset" : 6228
        },
        {
            "buffer" : 0,
            "byteLength" : 432,
            "byteOffset" : 6300
        },
        {
            "buffer" : 0,
            "byteLength" : 432,
            "byteOffset" : 6732
        },
        {
            "buffer" : 0,
            "byteLength" : 288,
            "byteOffset" : 7164
        },
        {
            "buffer" : 0,
            "byteLength" : 576,
            "byteOffset" : 7452
        },
        {
            "buffer" : 0,
            "byteLength" : 432,
            "byteOffset" : 8028
        },
        {
            "buffer" : 0,
            "byteLength" : 432,
            "byteOffset" : 8460
        },
        {
            "buffer" : 0,
            "byteLength" : 288,
            "byteOffset" : 8892
        },
        {
            "buffer" : 0,
            "byteLength" : 576,
            "byteOffset" : 9180
        },
        {
            "buffer" : 0,
            "byteLength" : 432,
            "byteOffset" : 9756
        },
        {
            "buffer" : 0,
            "byteLength" : 432,
            "byteOffset" : 10188
        },
        {
            "buffer" : 0,
            "byteLength" : 288,
            "byteOffset" : 10620
        },
        {
            "buffer" : 0,
            "byteLength" : 576,
            "byteOffset" : 10908
        },
        {
            "buffer" : 0,
            "byteLength" : 2136,
            "byteOffset" : 11484
        },
        {
            "buffer" : 0,
            "byteLength" : 2136,
            "byteOffset" : 13620
        },
        {
            "buffer" : 0,
            "byteLength" : 1424,
            "byteOffset" : 15756
        },
        {
            "buffer" : 0,
            "byteLength" : 2848,
            "byteOffset" : 17180
        },
        {
            "buffer" : 0,
            "byteLength" : 360,
            "byteOffset" : 20028
        },
        {
            "buffer" : 0,
            "byteLength" : 2136,
            "byteOffset" : 20388
        },
        {
            "buffer" : 0,
            "byteLength" : 2136,
            "byteOffset" : 22524
        },
        {
            "buffer" : 0,
            "byteLength" : 1424,
            "byteOffset" : 24660
        },
        {
            "buffer" : 0,
            "byteLength" : 2848,
            "byteOffset" : 26084
        },
        {
            "buffer" : 0,
            "byteLength" : 27648,
            "byteOffset" : 28932
        },
        {
            "buffer" : 0,
            "byteLength" : 27648,
            "byteOffset" : 56580
        },
        {
            "buffer" : 0,
            "byteLength" : 18432,
            "byteOffset" : 84228
        },
        {
            "buffer" : 0,
            "byteLength" : 36864,
            "byteOffset" : 102660
        },
        {
            "buffer" : 0,
            "byteLength" : 4608,
            "byteOffset" : 139524
        },
        {
            "buffer" : 0,
            "byteLength" : 3312,
            "byteOffset" : 144132
        },
        {
            "buffer" : 0,
            "byteLength" : 3312,
            "byteOffset" : 147444
        },
        {
            "buffer" : 0,
            "byteLength" : 2208,
            "byteOffset" : 150756
        },
        {
            "buffer" : 0,
            "byteLength" : 4416,
            "byteOffset" : 152964
        },
        {
            "buffer" : 0,
            "byteLength" : 552,
            "byteOffset" : 157380
        },
        {
            "buffer" : 0,
            "byteLength" : 792,
            "byteOffset" : 157932
        },
        {
            "buffer" : 0,
            "byteLength" : 792,
            "byteOffset" : 158724
        },
        {
            "buffer" : 0,
            "byteLength" : 528,
            "byteOffset" : 159516
        },
        {
            "buffer" : 0,
            "byteLength" : 1056,
            "byteOffset" : 160044
        },
        {
            "buffer" : 0,
            "byteLength" : 132,
            "byteOffset" : 161100
        }
    ],
    "buffers" : [
        {
            "byteLength" : 161232,
            "uri" : "data:application/octet-stream;base64,"
        }
    ]
}
