# This file uses centimeters as units for non-parametric coordinates.

mtllib Dish_LowPoly.mtl
g default1
v -1.865485 0.017756 1.670894
v 1.908680 0.017756 1.501543
v -1.245763 3.671396 0.992944
v 1.230730 3.671396 0.881820
v -1.356886 3.671396 -1.483549
v 1.119607 3.671396 -1.594672
v -2.034837 0.017756 -2.103273
v 1.739329 0.017756 -2.272622
v 1.861097 2.618044 1.458048
v -1.821990 2.618044 1.623310
v -1.987253 2.618044 -2.059775
v 1.695833 2.618044 -2.225039
v 1.265211 3.613779 0.913341
v -1.277282 3.613779 1.027424
v -1.391367 3.613779 -1.515069
v 1.151127 3.613779 -1.629154
v 0.774514 3.058737 -0.835893
v 0.394784 3.058737 -1.183009
v -0.107631 3.058737 -1.293756
v -0.598108 3.058737 -1.138458
v -0.945223 3.058737 -0.758725
v -1.055969 3.058737 -0.256312
v -0.900671 3.058737 0.234164
v -0.520940 3.058737 0.581281
v -0.018526 3.058737 0.692026
v 0.471950 3.058737 0.536728
v 0.819067 3.058737 0.156998
v 0.929812 3.058737 -0.345417
v 0.774514 5.046515 -0.835893
v 0.394784 5.046515 -1.183009
v -0.107631 5.046515 -1.293756
v -0.598108 5.046515 -1.138458
v -0.945223 5.046515 -0.758725
v -1.055969 5.046515 -0.256312
v -0.900671 5.046515 0.234164
v -0.520940 5.046515 0.581281
v -0.018526 5.046515 0.692026
v 0.471950 5.046515 0.536728
v 0.819067 5.046515 0.156998
v 0.929812 5.046515 -0.345417
v -0.018526 4.532541 0.692026
v -0.520940 4.532541 0.581281
v -0.900671 4.532541 0.234164
v -1.055969 4.532541 -0.256312
v -0.945223 4.532541 -0.758725
v -0.598108 4.532541 -1.138458
v -0.107631 4.532541 -1.293756
v 0.394784 4.532541 -1.183009
v 0.774514 4.532541 -0.835893
v 0.929812 4.532541 -0.345417
v 0.819067 4.532541 0.156998
v 0.471950 4.532541 0.536728
v -0.013914 4.532541 0.794818
v -0.568342 4.532541 0.672607
v -0.013914 5.046515 0.794818
v -0.568342 5.046515 0.672607
v -0.987385 4.532541 0.289555
v -0.987385 5.046515 0.289554
v -1.158761 4.532541 -0.251701
v -1.158761 5.046515 -0.251701
v -1.036548 4.532541 -0.806127
v -1.036548 5.046515 -0.806127
v -0.653497 4.532541 -1.225172
v -0.653497 5.046515 -1.225172
v -0.112243 4.532541 -1.396547
v -0.112243 5.046515 -1.396547
v 0.442185 4.532541 -1.274336
v 0.442185 5.046515 -1.274336
v 0.861229 4.532541 -0.891283
v 0.861229 5.046515 -0.891283
v 1.032604 4.532541 -0.350029
v 1.032604 5.046515 -0.350029
v 0.910393 4.532541 0.204399
v 0.910393 5.046515 0.204399
v 0.527341 4.532541 0.623443
v 0.527341 5.046515 0.623443
v -0.323518 4.669516 0.603079
v 0.277274 4.669516 0.576121
v -0.323518 5.663408 0.603079
v 0.277274 5.663408 0.576121
v -0.403429 5.663408 -1.177848
v 0.197362 5.663408 -1.204806
v -0.403429 4.669516 -1.177848
v 0.197362 4.669516 -1.204806
v 0.255749 5.663408 0.096428
v -0.345042 5.663408 0.123385
v -0.345042 4.669516 0.123385
v 0.255749 4.669516 0.096428
v 0.221329 5.663408 -0.670653
v -0.379461 5.663408 -0.643693
v -0.379461 4.669516 -0.643693
v 0.221329 4.669516 -0.670653
v -0.228684 6.060965 0.499334
v 0.173529 6.060965 0.481287
v 0.160915 6.060965 0.200171
v -0.241297 6.060965 0.218220
v 0.117585 6.060965 -0.765487
v -0.284627 6.060965 -0.747439
v 0.102528 6.060965 -1.101063
v -0.299685 6.060965 -1.083014
v 0.070632 5.908693 -1.014072
v 0.005710 5.934195 -1.010902
v -0.058206 5.906263 -1.007776
v -0.083674 5.841265 -1.006528
v -0.055778 5.777269 -1.007886
v 0.009145 5.751772 -1.011057
v 0.073061 5.779703 -1.014182
v 0.098530 5.844702 -1.015431
v 0.139524 5.908800 0.395901
v 0.074602 5.934301 0.399072
v 0.010687 5.906370 0.402197
v -0.014783 5.841372 0.403445
v 0.013114 5.777376 0.402087
v 0.078037 5.751879 0.398917
v 0.141952 5.779810 0.395791
v 0.167422 5.844809 0.394543
v -1.684608 6.532270 0.755563
v 0.833919 7.751486 0.642555
v 1.431733 6.514097 0.615730
v 0.745820 7.751486 -1.320828
v 1.343634 6.514097 -1.347653
v -1.772706 6.532270 -1.207820
v -0.733319 5.465998 0.712878
v -1.206343 5.542334 0.734102
v -1.294442 5.542334 -1.229281
v -0.821419 5.465998 -1.250507
v -1.725023 6.442797 -1.110470
v -1.333214 5.631807 -1.128052
v -1.254026 5.631807 0.636754
v -1.645834 6.442797 0.654334
v -1.903793 6.356253 -1.102449
v -1.511984 5.545267 -1.120029
v -1.432796 5.545267 0.644776
v -1.824604 6.356253 0.662357
v -1.856111 6.266779 -1.005100
v -1.550756 5.634741 -1.018801
v -1.480478 5.634741 0.547426
v -1.785832 6.266779 0.561128
v -1.766725 6.310053 -1.009111
v -1.461372 5.678015 -1.022813
v -1.391094 5.678015 0.543415
v -1.696447 6.310053 0.557116
v 0.954330 6.681227 -0.679858
v 0.813059 6.961660 -0.802680
v 0.683356 7.242102 -0.667699
v 0.634899 7.365644 -0.355372
v 0.704984 7.249487 -0.046693
v 0.846254 6.969049 0.076129
v 0.975957 6.688612 -0.058853
v 1.018114 6.572451 -0.372567
v 1.554985 6.972002 -0.706811
v 1.413714 7.252440 -0.829633
v 1.284012 7.532877 -0.694651
v 1.241855 7.649038 -0.380935
v 1.311939 7.532877 -0.072257
v 1.453210 7.252440 0.050567
v 1.582913 6.972002 -0.084415
v 1.625070 6.855841 -0.398132
v 2.021719 5.969942 -1.227250
v 1.729514 6.518255 -1.823818
v 1.357658 7.267267 -2.030292
v 1.005788 8.016279 -1.791344
v 0.768187 8.564592 -1.171003
v 0.708521 8.765287 -0.335488
v 0.842778 8.564592 0.491326
v 1.134982 8.016279 1.087897
v 1.506839 7.267267 1.294368
v 1.858709 6.518255 1.055421
v 2.096309 5.969942 0.435080
v 2.155975 5.769243 -0.400435
v 3.206296 4.960707 -2.113241
v 2.621888 6.057333 -3.306379
v 1.878175 7.555357 -3.719325
v 1.174434 9.053377 -3.241429
v 0.699234 10.150003 -2.000747
v 0.579903 10.551397 -0.329716
v 0.848414 10.150003 1.323913
v 1.432823 9.053377 2.517049
v 2.176536 7.555357 2.929996
v 2.880276 6.057333 2.452102
v 3.355477 4.960707 1.211418
v 3.474809 4.559313 -0.459613
v 4.742190 4.121538 -3.014998
v 3.865578 5.766481 -4.804703
v 2.750008 8.013514 -5.424121
v 1.694398 10.260546 -4.707280
v 0.981598 11.905489 -2.846255
v 0.802600 12.507578 -0.339708
v 1.205369 11.905489 2.140734
v 2.081982 10.260546 3.930440
v 3.197550 8.013514 4.549858
v 4.253161 5.766481 3.833017
v 4.965962 4.121538 1.971992
v 5.144960 3.519445 -0.534555
v 4.823795 4.161043 -3.018658
v 3.947182 5.805986 -4.808365
v 2.831614 8.053019 -5.427783
v 1.776003 10.300051 -4.710940
v 1.063202 11.944994 -2.849917
v 0.884204 12.547083 -0.343371
v 1.286974 11.944994 2.137072
v 2.163586 10.300051 3.926777
v 3.279156 8.053019 4.546197
v 4.334766 5.805986 3.829354
v 5.047567 4.161043 1.968331
v 5.226565 3.558950 -0.538215
v 3.287900 5.000208 -2.116904
v 2.703493 6.096838 -3.310041
v 1.959780 7.594858 -3.722986
v 1.256039 9.092882 -3.245091
v 0.780840 10.189508 -2.004408
v 0.661507 10.590902 -0.333378
v 0.930019 10.189508 1.320250
v 1.514428 9.092882 2.513387
v 2.258142 7.594858 2.926334
v 2.961881 6.096838 2.448440
v 3.437082 5.000208 1.207758
v 3.556414 4.598814 -0.463275
v 2.103323 6.009447 -1.230912
v 1.811119 6.557760 -1.827480
v 1.439262 7.306772 -2.033952
v 1.087393 8.055780 -1.795005
v 0.849792 8.604097 -1.174664
v 0.790126 8.804792 -0.339148
v 0.924383 8.604097 0.487666
v 1.216587 8.055780 1.084234
v 1.588443 7.306772 1.290708
v 1.940314 6.557760 1.051761
v 2.177913 6.009447 0.431418
v 2.237579 5.808748 -0.404098
v 1.432248 7.267267 -0.367962
v 1.513852 7.306772 -0.371624
v 0.656811 10.715014 -0.282545
v 0.615779 10.624422 -0.281270
v 4.112047 9.148077 -0.419620
v 4.071014 9.057486 -0.418345
v 4.108248 9.148397 -0.519007
v 4.067216 9.057806 -0.517730
v 0.653014 10.715334 -0.381932
v 0.611981 10.624743 -0.380657
v 4.166235 8.331125 -0.563740
v 4.116079 8.429579 -0.669989
v 4.052423 8.564070 -0.706848
v 3.992322 8.698557 -0.664438
v 3.951883 8.797010 -0.554121
v 3.941940 8.833048 -0.405458
v 3.965157 8.797010 -0.258284
v 4.015315 8.698557 -0.152032
v 4.078971 8.564070 -0.115173
v 4.139071 8.429579 -0.157585
v 4.179510 8.331125 -0.267902
v 4.189453 8.295088 -0.416565
v 4.266775 8.098185 -0.716467
v 4.166461 8.295088 -0.928969
v 4.039148 8.564070 -1.002686
v 3.918947 8.833048 -0.917865
v 3.838069 9.029951 -0.697230
v 3.818183 9.102026 -0.399905
v 3.864619 9.029951 -0.105556
v 3.964932 8.833048 0.106948
v 4.092246 8.564070 0.180663
v 4.212445 8.295088 0.095842
v 4.293324 8.098185 -0.124793
v 4.313210 8.026110 -0.422118
v 4.639940 8.270224 -0.733211
v 4.539627 8.467127 -0.945713
v 4.412312 8.736105 -1.019432
v 4.292112 9.005087 -0.934608
v 4.211234 9.201990 -0.713976
v 4.191348 9.274065 -0.416649
v 4.237784 9.201990 -0.122300
v 4.338097 9.005087 0.090204
v 4.465411 8.736105 0.163919
v 4.585610 8.467127 0.079098
v 4.666489 8.270224 -0.141537
v 4.686376 8.198149 -0.438862
v 4.539400 8.503164 -0.580484
v 4.489244 8.601618 -0.686735
v 4.425587 8.736105 -0.723594
v 4.365487 8.870596 -0.681182
v 4.325048 8.969049 -0.570865
v 4.315105 9.005087 -0.422202
v 4.338323 8.969049 -0.275028
v 4.388480 8.870596 -0.168776
v 4.452136 8.736105 -0.131917
v 4.512236 8.601618 -0.174329
v 4.552675 8.503164 -0.284646
v 4.562619 8.467127 -0.433309
v 4.065696 8.564070 -0.411011
v 4.687220 8.571314 -0.587116
v 4.637063 8.669764 -0.693367
v 4.586680 8.804255 -0.434389
v 4.573406 8.804255 -0.730225
v 4.513305 8.938746 -0.687813
v 4.472866 9.037199 -0.577498
v 4.462923 9.073233 -0.428836
v 4.486141 9.037199 -0.281660
v 4.536297 8.938746 -0.175409
v 4.599954 8.804255 -0.138550
v 4.660055 8.669764 -0.180962
v 4.700493 8.571314 -0.291279
v 4.710437 8.535276 -0.439942
v 2.431926 7.636263 3.188143
v 2.475185 7.546721 3.186201
v 4.374502 8.642218 0.076909
v 4.417761 8.552679 0.074968
v 4.300744 8.607821 0.019735
v 4.344003 8.518286 0.017793
v 2.358168 7.601866 3.130968
v 2.401426 7.512327 3.129027
v 2.077275 7.615427 -3.754546
v 2.120534 7.525888 -3.756487
v 4.236567 8.594896 -0.814313
v 4.279825 8.505358 -0.816254
v 4.305763 8.629683 -0.876717
v 4.349021 8.540144 -0.878658
v 2.146471 7.650209 -3.816950
v 2.189730 7.560671 -3.818891
v 3.635934 4.759996 -0.358627
v 3.733257 4.740061 -0.363417
v 4.360717 8.309340 -0.402941
v 4.458041 8.289404 -0.407732
v 4.355780 8.309107 -0.502279
v 4.453104 8.289171 -0.507069
v 3.630996 4.759764 -0.457964
v 3.728320 4.739832 -0.462755
vt 0.888606 0.997609
vt 0.888606 0.799176
vt 0.941148 0.801571
vt 0.941148 0.995214
vt 0.993447 0.831555
vt 0.993447 0.965230
vt 0.996474 0.833290
vt 0.996474 0.963495
vt 0.690395 0.989067
vt 0.690395 0.844324
vt 0.728721 0.846070
vt 0.728721 0.987321
vt 0.766870 0.867942
vt 0.766870 0.965449
vt 0.769078 0.869208
vt 0.769078 0.964184
vt 0.043654 0.695892
vt 0.043654 0.558708
vt 0.180838 0.558708
vt 0.180838 0.695892
vt 0.788743 0.528033
vt 0.880813 0.528033
vt 0.880813 0.620102
vt 0.788743 0.620102
vt 0.225245 0.689571
vt 0.225245 0.459230
vt 0.286236 0.462009
vt 0.286236 0.686792
vt 0.346945 0.496815
vt 0.346945 0.651986
vt 0.350458 0.498829
vt 0.350458 0.649972
vt 0.287491 0.401357
vt 0.287491 0.264801
vt 0.324543 0.263112
vt 0.324543 0.403045
vt 0.250609 0.380212
vt 0.250609 0.285945
vt 0.248475 0.378989
vt 0.248475 0.287169
vt 0.678041 0.648872
vt 0.678041 0.618614
vt 0.767779 0.618614
vt 0.767779 0.648872
vt 0.678041 0.588355
vt 0.767779 0.588355
vt 0.678041 0.671023
vt 0.767779 0.671023
vt 0.678041 0.566204
vt 0.767779 0.566204
vt 0.680007 0.766819
vt 0.680007 0.738775
vt 0.763179 0.738775
vt 0.763179 0.766819
vt 0.680007 0.710730
vt 0.763179 0.710730
vt 0.680007 0.787349
vt 0.763179 0.787349
vt 0.680007 0.690201
vt 0.763179 0.690201
vt 0.818983 0.176263
vt 0.818983 0.075648
vt 0.913284 0.075648
vt 0.913284 0.176263
vt 0.818983 0.001992
vt 0.913284 0.001992
vt 0.818983 0.276879
vt 0.913284 0.276879
vt 0.818983 0.350535
vt 0.913284 0.350535
vt 0.900993 0.669166
vt 0.900993 0.605976
vt 0.960217 0.605976
vt 0.960217 0.669166
vt 0.900993 0.559717
vt 0.960217 0.559717
vt 0.900993 0.732357
vt 0.960217 0.732357
vt 0.900993 0.778616
vt 0.960217 0.778616
vt 0.077852 0.487952
vt 0.123073 0.500069
vt 0.123073 0.509432
vt 0.073170 0.496061
vt 0.168293 0.487952
vt 0.172975 0.496061
vt 0.044748 0.454848
vt 0.036639 0.459530
vt 0.201397 0.454848
vt 0.209506 0.459530
vt 0.032631 0.409627
vt 0.023268 0.409627
vt 0.213514 0.409627
vt 0.222877 0.409627
vt 0.044748 0.364406
vt 0.036639 0.359725
vt 0.201397 0.364406
vt 0.209506 0.359725
vt 0.077852 0.331302
vt 0.073170 0.323194
vt 0.168293 0.331302
vt 0.172975 0.323194
vt 0.123073 0.319186
vt 0.123073 0.309822
vt 0.488800 0.148982
vt 0.458605 0.157073
vt 0.455479 0.151659
vt 0.488800 0.142730
vt 0.518995 0.261672
vt 0.488800 0.269763
vt 0.458605 0.261672
vt 0.436501 0.239567
vt 0.428410 0.209372
vt 0.436501 0.179177
vt 0.518995 0.157073
vt 0.541099 0.179177
vt 0.549190 0.209372
vt 0.541099 0.239567
vt 0.431086 0.176051
vt 0.522121 0.151659
vt 0.522121 0.267086
vt 0.488800 0.276015
vt 0.455479 0.267086
vt 0.431086 0.242693
vt 0.422158 0.209372
vt 0.546514 0.176051
vt 0.555442 0.209372
vt 0.546514 0.242694
vt 0.536831 0.973722
vt 0.488404 0.973722
vt 0.488404 0.830101
vt 0.536831 0.830101
vt 0.439977 0.973722
vt 0.439977 0.830101
vt 0.572615 0.848300
vt 0.614629 0.848300
vt 0.614629 0.972904
vt 0.572615 0.972904
vt 0.656644 0.848300
vt 0.656644 0.972904
vt 0.435904 0.129770
vt 0.435904 0.078689
vt 0.483780 0.078689
vt 0.483780 0.129770
vt 0.435904 0.027607
vt 0.483780 0.027607
vt 0.548430 0.080861
vt 0.548430 0.122508
vt 0.509397 0.122508
vt 0.509397 0.080861
vt 0.548430 0.039215
vt 0.509397 0.039215
vt 0.704444 0.354038
vt 0.749316 0.354038
vt 0.704444 0.398910
vt 0.749316 0.398910
vt 0.704444 0.443782
vt 0.749316 0.443782
vt 0.704444 0.488654
vt 0.749316 0.488654
vt 0.704444 0.533526
vt 0.749316 0.533526
vt 0.794187 0.354038
vt 0.794187 0.398910
vt 0.659572 0.354038
vt 0.659572 0.398910
vt 0.749316 0.410996
vt 0.761402 0.398910
vt 0.692358 0.398910
vt 0.704444 0.410996
vt 0.692358 0.354038
vt 0.704444 0.521439
vt 0.749316 0.521439
vt 0.761402 0.354038
vt 0.749316 0.430324
vt 0.780729 0.398910
vt 0.673030 0.398910
vt 0.704444 0.430324
vt 0.673030 0.354038
vt 0.704444 0.502112
vt 0.749316 0.502112
vt 0.780729 0.354038
vt 0.704444 0.398910
vt 0.749316 0.398910
vt 0.749316 0.410996
vt 0.704444 0.410996
vt 0.704444 0.430324
vt 0.749316 0.430324
vt 0.749316 0.443782
vt 0.704444 0.443782
vt 0.375000 0.312500
vt 0.406250 0.312500
vt 0.437500 0.312500
vt 0.468750 0.312500
vt 0.500000 0.312500
vt 0.531250 0.312500
vt 0.562500 0.312500
vt 0.593750 0.312500
vt 0.625000 0.312500
vt 0.375000 0.688440
vt 0.406250 0.688440
vt 0.437500 0.688440
vt 0.468750 0.688440
vt 0.500000 0.688440
vt 0.531250 0.688440
vt 0.562500 0.688440
vt 0.593750 0.688440
vt 0.625000 0.688440
vt 0.287227 0.080477
vt 0.287227 0.124544
vt 0.243160 0.036410
vt 0.243160 0.080477
vt 0.287227 0.036410
vt 0.322482 0.036410
vt 0.331294 0.124544
vt 0.287227 0.168611
vt 0.331294 0.042595
vt 0.375361 0.042595
vt 0.375361 0.080477
vt 0.331294 0.080477
vt 0.322482 0.168611
vt 0.287227 0.212678
vt 0.331294 0.212678
vt 0.322482 0.212678
vt 0.331294 0.162427
vt 0.287227 0.168611
vt 0.322482 0.168611
vt 0.322482 0.212678
vt 0.287227 0.212678
vt 0.287227 0.168611
vt 0.322482 0.168611
vt 0.322482 0.212678
vt 0.287227 0.212678
vt 0.287227 0.168611
vt 0.322482 0.168611
vt 0.322482 0.212678
vt 0.287227 0.212678
vt 0.287227 0.168611
vt 0.322482 0.168611
vt 0.322482 0.212678
vt 0.287227 0.212678
vt 0.375000 0.312500
vt 0.406250 0.312500
vt 0.437500 0.312500
vt 0.468750 0.312500
vt 0.500000 0.312500
vt 0.531250 0.312500
vt 0.562500 0.312500
vt 0.593750 0.312500
vt 0.625000 0.312500
vt 0.375000 0.688440
vt 0.406250 0.688440
vt 0.437500 0.688440
vt 0.468750 0.688440
vt 0.500000 0.688440
vt 0.531250 0.688440
vt 0.562500 0.688440
vt 0.593750 0.688440
vt 0.625000 0.688440
vt 0.701363 0.205679
vt 0.693056 0.197372
vt 0.681709 0.194331
vt 0.670361 0.197372
vt 0.662054 0.205679
vt 0.659014 0.217026
vt 0.662054 0.228374
vt 0.670361 0.236680
vt 0.681709 0.239721
vt 0.693056 0.236680
vt 0.701363 0.228374
vt 0.704403 0.217026
vt 0.721017 0.194331
vt 0.704403 0.177718
vt 0.681709 0.171637
vt 0.659014 0.177718
vt 0.642400 0.194331
vt 0.636319 0.217026
vt 0.642400 0.239721
vt 0.659014 0.256335
vt 0.681709 0.262416
vt 0.704403 0.256335
vt 0.721017 0.239721
vt 0.727098 0.217026
vt 0.740671 0.182984
vt 0.715751 0.158063
vt 0.681709 0.148942
vt 0.647666 0.158063
vt 0.622746 0.182984
vt 0.613624 0.217026
vt 0.622746 0.251068
vt 0.647666 0.275989
vt 0.681709 0.285110
vt 0.715751 0.275989
vt 0.740671 0.251068
vt 0.749793 0.217026
vt 0.375000 0.312500
vt 0.395833 0.312500
vt 0.416667 0.312500
vt 0.437500 0.312500
vt 0.458333 0.312500
vt 0.479167 0.312500
vt 0.500000 0.312500
vt 0.520833 0.312500
vt 0.541667 0.312500
vt 0.562500 0.312500
vt 0.583333 0.312500
vt 0.604167 0.312500
vt 0.625000 0.312500
vt 0.375000 0.688440
vt 0.395833 0.688440
vt 0.416667 0.688440
vt 0.437500 0.688440
vt 0.458333 0.688440
vt 0.479167 0.688440
vt 0.500000 0.688440
vt 0.520833 0.688440
vt 0.541667 0.688440
vt 0.562500 0.688440
vt 0.583333 0.688440
vt 0.604167 0.688440
vt 0.625000 0.688440
vt 0.214170 0.836607
vt 0.175306 0.797743
vt 0.122216 0.783518
vt 0.069127 0.797743
vt 0.030263 0.836607
vt 0.016038 0.889697
vt 0.030263 0.942786
vt 0.069127 0.981650
vt 0.122216 0.995875
vt 0.175306 0.981650
vt 0.214170 0.942786
vt 0.228395 0.889697
vt 0.183519 0.854304
vt 0.157609 0.828394
vt 0.122216 0.818911
vt 0.086824 0.828394
vt 0.060914 0.854304
vt 0.051431 0.889697
vt 0.060914 0.925089
vt 0.086824 0.950999
vt 0.122216 0.960482
vt 0.157609 0.950999
vt 0.183519 0.925089
vt 0.193002 0.889697
vt 0.152868 0.872000
vt 0.139913 0.859046
vt 0.122216 0.854304
vt 0.104520 0.859046
vt 0.091565 0.872000
vt 0.086824 0.889697
vt 0.091565 0.907393
vt 0.104520 0.920348
vt 0.122216 0.925089
vt 0.139913 0.920348
vt 0.152868 0.907393
vt 0.157609 0.889697
vt 0.681709 0.214303
vt 0.122216 0.885449
vt 0.029503 0.226248
vt 0.050932 0.226248
vt 0.029503 0.247676
vt 0.050932 0.247676
vt 0.029503 0.269105
vt 0.050932 0.269105
vt 0.029503 0.290533
vt 0.050932 0.290533
vt 0.029503 0.311962
vt 0.050932 0.311962
vt 0.072360 0.226248
vt 0.072360 0.247676
vt 0.008074 0.226248
vt 0.008074 0.247676
vt 0.851865 0.718365
vt 0.843070 0.709570
vt 0.831055 0.706350
vt 0.819040 0.709570
vt 0.810244 0.718365
vt 0.807025 0.730380
vt 0.810244 0.742395
vt 0.819040 0.751191
vt 0.831055 0.754410
vt 0.843070 0.751191
vt 0.851865 0.742395
vt 0.855085 0.730380
vt 0.872676 0.706350
vt 0.855085 0.688759
vt 0.831055 0.682320
vt 0.807025 0.688759
vt 0.789434 0.706350
vt 0.782995 0.730380
vt 0.789434 0.754410
vt 0.807025 0.772001
vt 0.831055 0.778440
vt 0.855085 0.772001
vt 0.872676 0.754410
vt 0.879115 0.730380
vt 0.792607 0.778440
vt 0.799015 0.778440
vt 0.805423 0.778440
vt 0.811831 0.778440
vt 0.818239 0.778440
vt 0.824647 0.778440
vt 0.831055 0.778440
vt 0.837463 0.778440
vt 0.843871 0.778440
vt 0.850279 0.778440
vt 0.856687 0.778440
vt 0.863095 0.778440
vt 0.869503 0.778440
vt 0.792607 0.894072
vt 0.799015 0.894072
vt 0.805423 0.894072
vt 0.811831 0.894072
vt 0.818239 0.894072
vt 0.824647 0.894072
vt 0.831055 0.894072
vt 0.837463 0.894072
vt 0.843871 0.894072
vt 0.850279 0.894072
vt 0.856687 0.894072
vt 0.863095 0.894072
vt 0.869503 0.894072
vt 0.872676 0.917813
vt 0.855085 0.900222
vt 0.831055 0.893783
vt 0.807025 0.900222
vt 0.789434 0.917813
vt 0.782995 0.941843
vt 0.789434 0.965873
vt 0.807025 0.983464
vt 0.831055 0.989903
vt 0.855085 0.983464
vt 0.872676 0.965873
vt 0.879115 0.941843
vt 0.851865 0.929828
vt 0.843070 0.921032
vt 0.831055 0.917813
vt 0.819040 0.921032
vt 0.810244 0.929828
vt 0.807025 0.941843
vt 0.810244 0.953858
vt 0.819040 0.962653
vt 0.831055 0.965873
vt 0.843070 0.962653
vt 0.851865 0.953858
vt 0.855085 0.941843
vt 0.831055 0.728458
vt 0.831055 0.939921
vt 0.851865 0.953858
vt 0.843070 0.962653
vt 0.831055 0.965873
vt 0.819040 0.962653
vt 0.810244 0.953858
vt 0.807025 0.941843
vt 0.810244 0.929828
vt 0.819040 0.921032
vt 0.831055 0.917813
vt 0.843070 0.921032
vt 0.851865 0.929828
vt 0.855085 0.941843
vt 0.034393 0.083178
vt 0.062104 0.083178
vt 0.034393 0.110889
vt 0.062104 0.110889
vt 0.034393 0.138599
vt 0.062104 0.138599
vt 0.034393 0.166309
vt 0.062104 0.166309
vt 0.034393 0.194019
vt 0.062104 0.194019
vt 0.089814 0.083178
vt 0.089814 0.110889
vt 0.006683 0.083178
vt 0.006683 0.110889
vt 0.136458 0.071811
vt 0.160817 0.071811
vt 0.136458 0.096170
vt 0.160817 0.096170
vt 0.136458 0.120529
vt 0.160817 0.120529
vt 0.136458 0.144888
vt 0.160817 0.144888
vt 0.136458 0.169247
vt 0.160817 0.169247
vt 0.185176 0.071811
vt 0.185176 0.096170
vt 0.112099 0.071811
vt 0.112099 0.096170
vt 0.129892 0.210185
vt 0.151321 0.210185
vt 0.129892 0.231614
vt 0.151321 0.231614
vt 0.129892 0.253042
vt 0.151321 0.253042
vt 0.129892 0.274471
vt 0.151321 0.274471
vt 0.129892 0.295900
vt 0.151321 0.295900
vt 0.172749 0.210185
vt 0.172749 0.231614
vt 0.108464 0.210185
vt 0.108464 0.231614
vn 0.044818 0.017528 0.998841
vn 0.044818 0.017528 0.998841
vn 0.044511 0.118136 0.991999
vn 0.044511 0.118136 0.991999
vn 0.000000 1.000000 0.000000
vn 0.000000 1.000000 0.000000
vn 0.000000 1.000000 0.000000
vn 0.000000 1.000000 0.000000
vn -0.044511 0.118136 -0.991999
vn -0.044511 0.118136 -0.991999
vn -0.044818 0.017528 -0.998841
vn -0.044818 0.017528 -0.998841
vn 0.000000 -1.000000 0.000000
vn 0.000000 -1.000000 0.000000
vn 0.000000 -1.000000 0.000000
vn 0.000000 -1.000000 0.000000
vn 0.998841 0.017528 -0.044818
vn 0.998841 0.017528 -0.044818
vn 0.991999 0.118136 -0.044511
vn 0.991999 0.118136 -0.044511
vn -0.998841 0.017528 0.044818
vn -0.998841 0.017528 0.044818
vn -0.991999 0.118136 0.044511
vn -0.991999 0.118136 0.044511
vn 0.044511 0.118136 0.991999
vn 0.044511 0.118136 0.991999
vn 0.038888 0.497371 0.866666
vn 0.038888 0.497371 0.866666
vn -0.991999 0.118136 0.044511
vn -0.991999 0.118136 0.044511
vn -0.866666 0.497371 0.038888
vn -0.866666 0.497371 0.038888
vn -0.038888 0.497371 -0.866666
vn -0.038888 0.497371 -0.866666
vn -0.044511 0.118136 -0.991999
vn -0.044511 0.118136 -0.991999
vn 0.991999 0.118136 -0.044511
vn 0.991999 0.118136 -0.044511
vn 0.866666 0.497371 -0.038888
vn 0.866666 0.497371 -0.038888
vn 0.038888 0.497371 0.866666
vn 0.038888 0.497371 0.866666
vn 0.038888 0.497372 0.866665
vn 0.038888 0.497372 0.866665
vn -0.866666 0.497371 0.038888
vn -0.866666 0.497371 0.038888
vn -0.866665 0.497372 0.038888
vn -0.866665 0.497372 0.038888
vn -0.038888 0.497372 -0.866665
vn -0.038888 0.497372 -0.866665
vn -0.038888 0.497371 -0.866666
vn -0.038888 0.497371 -0.866666
vn 0.866666 0.497371 -0.038888
vn 0.866666 0.497371 -0.038888
vn 0.866665 0.497372 -0.038888
vn 0.866665 0.497372 -0.038888
vn 0.674700 0.000000 -0.738092
vn 0.674700 0.000000 -0.738092
vn 0.674700 0.000000 -0.738092
vn 0.674700 0.000000 -0.738092
vn 0.215260 0.000000 -0.976557
vn 0.215260 0.000000 -0.976557
vn 0.215260 0.000000 -0.976557
vn 0.215260 0.000000 -0.976557
vn -0.301857 0.000000 -0.953353
vn -0.301857 0.000000 -0.953353
vn -0.301857 0.000000 -0.953353
vn -0.301857 0.000000 -0.953353
vn -0.738092 0.000000 -0.674700
vn -0.738092 0.000000 -0.674700
vn -0.738092 0.000000 -0.674700
vn -0.738092 0.000000 -0.674700
vn -0.976557 0.000000 -0.215260
vn -0.976557 0.000000 -0.215260
vn -0.976557 0.000000 -0.215260
vn -0.976557 0.000000 -0.215260
vn -0.953353 0.000000 0.301857
vn -0.953353 0.000000 0.301857
vn -0.953353 0.000000 0.301857
vn -0.953353 0.000000 0.301857
vn -0.674700 0.000000 0.738092
vn -0.674700 0.000000 0.738092
vn -0.674700 0.000000 0.738092
vn -0.674700 0.000000 0.738092
vn -0.215260 0.000000 0.976557
vn -0.215260 0.000000 0.976557
vn -0.215260 0.000000 0.976557
vn -0.215260 0.000000 0.976557
vn 0.301857 0.000000 0.953353
vn 0.301857 0.000000 0.953353
vn 0.301857 0.000000 0.953353
vn 0.301857 0.000000 0.953353
vn 0.738092 0.000000 0.674700
vn 0.738092 0.000000 0.674700
vn 0.738092 0.000000 0.674700
vn 0.738092 0.000000 0.674700
vn 0.976557 0.000000 0.215260
vn 0.976557 0.000000 0.215260
vn 0.976557 0.000000 0.215260
vn 0.976557 0.000000 0.215260
vn 0.953353 0.000000 -0.301857
vn 0.953353 0.000000 -0.301857
vn 0.953353 0.000000 -0.301857
vn 0.953353 0.000000 -0.301857
vn -0.215260 0.000000 0.976557
vn -0.215260 0.000000 0.976557
vn -0.215260 0.000000 0.976557
vn -0.215260 0.000000 0.976557
vn -0.674700 0.000000 0.738092
vn -0.674700 0.000000 0.738092
vn -0.674700 0.000000 0.738092
vn -0.674700 0.000000 0.738092
vn -0.953353 0.000000 0.301857
vn -0.953353 0.000000 0.301857
vn -0.953353 0.000000 0.301857
vn -0.953353 0.000000 0.301857
vn -0.976557 0.000000 -0.215260
vn -0.976557 0.000000 -0.215260
vn -0.976557 0.000000 -0.215260
vn -0.976557 0.000000 -0.215260
vn -0.738093 0.000000 -0.674699
vn -0.738093 0.000000 -0.674699
vn -0.738093 0.000000 -0.674699
vn -0.738093 0.000000 -0.674699
vn -0.301857 0.000000 -0.953353
vn -0.301857 0.000000 -0.953353
vn -0.301857 0.000000 -0.953353
vn -0.301857 0.000000 -0.953353
vn 0.215260 0.000000 -0.976557
vn 0.215260 0.000000 -0.976557
vn 0.215260 0.000000 -0.976557
vn 0.215260 0.000000 -0.976557
vn 0.674700 0.000000 -0.738092
vn 0.674700 0.000000 -0.738092
vn 0.674700 0.000000 -0.738092
vn 0.674700 0.000000 -0.738092
vn 0.953353 0.000000 -0.301857
vn 0.953353 0.000000 -0.301857
vn 0.953353 0.000000 -0.301857
vn 0.953353 0.000000 -0.301857
vn 0.976557 -0.000000 0.215260
vn 0.976557 -0.000000 0.215260
vn 0.976557 -0.000000 0.215260
vn 0.976557 -0.000000 0.215260
vn 0.738093 0.000000 0.674699
vn 0.738093 0.000000 0.674699
vn 0.738093 0.000000 0.674699
vn 0.738093 0.000000 0.674699
vn 0.301857 -0.000000 0.953353
vn 0.301857 -0.000000 0.953353
vn 0.301857 -0.000000 0.953353
vn 0.301857 -0.000000 0.953353
vn 0.000000 -1.000000 0.000000
vn 0.000000 -1.000000 0.000000
vn 0.000000 -1.000000 0.000000
vn 0.000000 -1.000000 0.000000
vn 0.000000 1.000000 -0.000000
vn 0.000000 1.000000 -0.000000
vn 0.000000 1.000000 -0.000000
vn 0.000000 1.000000 -0.000000
vn 0.000000 -1.000000 0.000000
vn 0.000000 -1.000000 0.000000
vn 0.000000 -1.000000 0.000000
vn 0.000000 -1.000000 0.000000
vn 0.000000 1.000000 -0.000000
vn 0.000000 1.000000 0.000000
vn 0.000000 1.000000 0.000000
vn 0.000000 1.000000 -0.000000
vn 0.000000 -1.000000 0.000000
vn 0.000000 -1.000000 0.000000
vn 0.000000 -1.000000 0.000000
vn 0.000000 -1.000000 0.000000
vn 0.000000 1.000000 0.000000
vn 0.000000 1.000000 0.000000
vn 0.000000 1.000000 0.000000
vn 0.000000 1.000000 0.000000
vn 0.000000 -1.000000 0.000000
vn 0.000000 -1.000000 0.000000
vn 0.000000 -1.000000 0.000000
vn 0.000000 -1.000000 0.000000
vn 0.000000 1.000000 0.000000
vn 0.000000 1.000000 0.000000
vn 0.000000 1.000000 0.000000
vn 0.000000 1.000000 0.000000
vn 0.000000 -1.000000 0.000000
vn 0.000000 -1.000000 0.000000
vn 0.000000 -1.000000 0.000000
vn 0.000000 -1.000000 0.000000
vn 0.000000 1.000000 0.000000
vn 0.000000 1.000000 0.000000
vn 0.000000 1.000000 0.000000
vn 0.000000 1.000000 0.000000
vn 0.000000 -1.000000 0.000000
vn 0.000000 -1.000000 0.000000
vn 0.000000 -1.000000 0.000000
vn 0.000000 -1.000000 0.000000
vn 0.000000 1.000000 0.000000
vn 0.000000 1.000000 0.000000
vn 0.000000 1.000000 0.000000
vn 0.000000 1.000000 0.000000
vn 0.000000 -1.000000 0.000000
vn 0.000000 -1.000000 0.000000
vn 0.000000 -1.000000 0.000000
vn 0.000000 -1.000000 0.000000
vn 0.000000 1.000000 0.000000
vn 0.000000 1.000000 0.000000
vn 0.000000 1.000000 0.000000
vn 0.000000 1.000000 0.000000
vn 0.000000 -1.000000 0.000000
vn 0.000000 -1.000000 0.000000
vn 0.000000 -1.000000 0.000000
vn 0.000000 -1.000000 0.000000
vn 0.000000 1.000000 0.000000
vn 0.000000 1.000000 0.000000
vn 0.000000 1.000000 0.000000
vn 0.000000 1.000000 0.000000
vn 0.000000 -1.000000 0.000000
vn 0.000000 -1.000000 0.000000
vn 0.000000 -1.000000 0.000000
vn 0.000000 -1.000000 0.000000
vn 0.000000 1.000000 0.000000
vn 0.000000 1.000000 0.000000
vn 0.000000 1.000000 0.000000
vn 0.000000 1.000000 0.000000
vn 0.000000 -1.000000 0.000000
vn 0.000000 -1.000000 0.000000
vn 0.000000 -1.000000 0.000000
vn 0.000000 -1.000000 0.000000
vn 0.000000 1.000000 0.000000
vn 0.000000 1.000000 0.000000
vn 0.000000 1.000000 0.000000
vn 0.000000 1.000000 0.000000
vn 0.000000 -1.000000 0.000000
vn 0.000000 -1.000000 0.000000
vn 0.000000 -1.000000 0.000000
vn 0.000000 -1.000000 0.000000
vn 0.000000 1.000000 0.000000
vn 0.000000 1.000000 0.000000
vn 0.000000 1.000000 0.000000
vn 0.000000 1.000000 0.000000
vn 0.000000 -1.000000 0.000000
vn 0.000000 -1.000000 0.000000
vn 0.000000 -1.000000 0.000000
vn 0.000000 -1.000000 0.000000
vn 0.000000 1.000000 0.000000
vn 0.000000 1.000000 -0.000000
vn 0.000000 1.000000 -0.000000
vn 0.000000 1.000000 0.000000
vn 0.000000 1.000000 0.000000
vn 0.000000 1.000000 0.000000
vn 0.000000 1.000000 0.000000
vn 0.000000 1.000000 0.000000
vn 0.000000 1.000000 0.000000
vn 0.000000 1.000000 0.000000
vn 0.000000 1.000000 0.000000
vn 0.000000 1.000000 0.000000
vn 0.000000 1.000000 0.000000
vn 0.000000 1.000000 0.000000
vn 0.000000 1.000000 0.000000
vn 0.000000 1.000000 0.000000
vn 0.044826 0.000000 0.998995
vn 0.044826 0.000000 0.998995
vn 0.044769 0.050150 0.997738
vn 0.044769 0.050150 0.997738
vn 0.000000 1.000000 0.000000
vn 0.000000 1.000000 0.000000
vn 0.000000 1.000000 0.000000
vn 0.000000 1.000000 0.000000
vn -0.044769 0.050150 -0.997738
vn -0.044769 0.050150 -0.997738
vn -0.044826 0.000000 -0.998995
vn -0.044826 0.000000 -0.998995
vn 0.000000 -1.000000 0.000000
vn 0.000000 -1.000000 0.000000
vn 0.000000 -1.000000 0.000000
vn 0.000000 -1.000000 0.000000
vn 0.998995 0.000000 -0.044826
vn 0.998995 0.000000 -0.044826
vn 0.998678 0.025190 -0.044812
vn 0.997410 0.056312 -0.044755
vn -0.998995 0.000000 0.044826
vn -0.998995 0.000000 0.044826
vn -0.997410 0.056312 0.044755
vn -0.998678 0.025190 0.044812
vn 0.000000 1.000000 0.000000
vn 0.000000 1.000000 0.000000
vn 0.000000 1.000000 0.000000
vn 0.000000 1.000000 0.000000
vn -0.998995 0.000000 0.044826
vn -0.998995 0.000000 0.044826
vn -0.998678 0.025190 0.044812
vn -0.998622 0.027327 0.044809
vn 0.000000 -1.000000 0.000000
vn 0.000000 -1.000000 0.000000
vn 0.000000 -1.000000 0.000000
vn 0.000000 -1.000000 0.000000
vn 0.998678 0.025190 -0.044812
vn 0.998995 0.000000 -0.044826
vn 0.998995 0.000000 -0.044826
vn 0.998622 0.027327 -0.044809
vn 0.000000 1.000000 0.000000
vn 0.000000 1.000000 0.000000
vn 0.000000 1.000000 0.000000
vn 0.000000 1.000000 0.000000
vn -0.998995 0.000000 0.044826
vn -0.998995 0.000000 0.044826
vn -0.998622 0.027327 0.044809
vn -0.997344 0.057462 0.044752
vn 0.000000 -1.000000 0.000000
vn 0.000000 -1.000000 0.000000
vn 0.000000 -1.000000 0.000000
vn 0.000000 -1.000000 0.000000
vn 0.998622 0.027327 -0.044809
vn 0.998995 0.000000 -0.044826
vn 0.998995 0.000000 -0.044826
vn 0.997344 0.057462 -0.044752
vn 0.044769 0.050150 0.997738
vn 0.044769 0.050150 0.997738
vn 0.043487 0.242536 0.969167
vn 0.043487 0.242536 0.969167
vn 0.997410 0.056312 -0.044755
vn 0.998678 0.025190 -0.044812
vn 0.969167 0.242536 -0.043487
vn 0.969167 0.242536 -0.043487
vn -0.043487 0.242536 -0.969167
vn -0.043487 0.242536 -0.969167
vn -0.043487 0.242536 -0.969167
vn -0.043487 0.242536 -0.969167
vn -0.998678 0.025190 0.044812
vn -0.997410 0.056312 0.044755
vn -0.969167 0.242536 0.043487
vn -0.969167 0.242536 0.043487
vn 0.043487 0.242536 0.969167
vn 0.043487 0.242536 0.969167
vn 0.043487 0.242536 0.969167
vn 0.043487 0.242536 0.969167
vn 0.998622 0.027327 -0.044809
vn 0.997344 0.057462 -0.044752
vn 0.969167 0.242536 -0.043487
vn 0.969167 0.242536 -0.043487
vn -0.044769 0.050150 -0.997738
vn -0.044769 0.050150 -0.997738
vn -0.043487 0.242536 -0.969167
vn -0.043487 0.242536 -0.969167
vn -0.997344 0.057462 0.044752
vn -0.998622 0.027327 0.044809
vn -0.969167 0.242535 0.043487
vn -0.969167 0.242535 0.043487
vn 0.364767 0.930927 -0.017892
vn 0.364767 0.930927 -0.017892
vn 0.364767 0.930927 -0.017892
vn 0.364767 0.930927 -0.017892
vn -0.399552 0.916504 0.019453
vn -0.399552 0.916504 0.019453
vn -0.399552 0.916504 0.019453
vn -0.399552 0.916504 0.019453
vn -0.929819 0.365206 0.045404
vn -0.929819 0.365206 0.045404
vn -0.929819 0.365206 0.045404
vn -0.929819 0.365206 0.045404
vn -0.915411 -0.400024 0.044758
vn -0.915411 -0.400024 0.044758
vn -0.915411 -0.400024 0.044758
vn -0.915411 -0.400024 0.044758
vn -0.364767 -0.930927 0.017892
vn -0.364767 -0.930927 0.017892
vn -0.364767 -0.930927 0.017892
vn -0.364767 -0.930927 0.017892
vn 0.399552 -0.916504 -0.019453
vn 0.399552 -0.916504 -0.019453
vn 0.399552 -0.916504 -0.019453
vn 0.399552 -0.916504 -0.019453
vn 0.929819 -0.365206 -0.045404
vn 0.929819 -0.365206 -0.045404
vn 0.929819 -0.365206 -0.045404
vn 0.929819 -0.365206 -0.045404
vn 0.915411 0.400025 -0.044758
vn 0.915411 0.400025 -0.044758
vn 0.915411 0.400025 -0.044758
vn 0.915411 0.400025 -0.044758
vn 0.044826 0.000000 0.998995
vn 0.044826 0.000000 0.998995
vn 0.044826 0.000000 0.998995
vn 0.044826 0.000000 0.998995
vn 0.044826 0.000000 0.998995
vn 0.899346 0.435372 -0.040354
vn 0.899346 0.435372 -0.040354
vn 0.899346 0.435372 -0.040354
vn 0.899346 0.435372 -0.040354
vn -0.044826 0.000000 -0.998995
vn -0.044826 0.000000 -0.998995
vn -0.044826 0.000000 -0.998995
vn -0.044826 0.000000 -0.998995
vn -0.044826 0.000000 -0.998995
vn -0.899346 -0.435372 0.040354
vn -0.899346 -0.435372 0.040354
vn -0.899346 -0.435372 0.040354
vn -0.899346 -0.435372 0.040354
vn 0.434935 -0.900250 -0.019516
vn 0.434935 -0.900250 -0.019516
vn 0.434935 -0.900250 -0.019516
vn 0.434935 -0.900250 -0.019516
vn -0.434934 0.900251 0.019516
vn -0.434934 0.900251 0.019516
vn -0.434934 0.900251 0.019516
vn -0.434934 0.900251 0.019516
vn -0.159007 -0.987252 0.007135
vn -0.159007 -0.987252 0.007135
vn -0.159007 -0.987252 0.007135
vn -0.159007 -0.987252 0.007135
vn -0.899346 -0.435372 0.040354
vn -0.899344 -0.435376 0.040354
vn -0.899344 -0.435375 0.040354
vn -0.899346 -0.435372 0.040354
vn -0.899344 -0.435376 0.040354
vn -0.899344 -0.435376 0.040355
vn -0.899344 -0.435375 0.040355
vn -0.899344 -0.435375 0.040354
vn -0.899344 -0.435376 0.040355
vn -0.899346 -0.435372 0.040355
vn -0.899346 -0.435372 0.040355
vn -0.899344 -0.435375 0.040355
vn -0.899346 -0.435372 0.040355
vn -0.899346 -0.435372 0.040354
vn -0.899346 -0.435372 0.040354
vn -0.899346 -0.435372 0.040355
vn -0.044826 0.000000 -0.998995
vn -0.044826 0.000000 -0.998995
vn -0.044826 0.000000 -0.998995
vn -0.044826 0.000000 -0.998995
vn 0.434933 -0.900251 -0.019515
vn 0.434933 -0.900251 -0.019515
vn 0.434933 -0.900251 -0.019515
vn 0.434933 -0.900251 -0.019515
vn 0.044826 0.000000 0.998995
vn 0.044826 0.000000 0.998995
vn 0.044826 0.000000 0.998995
vn 0.044826 0.000000 0.998995
vn -0.434932 0.900252 0.019516
vn -0.434932 0.900252 0.019516
vn -0.434932 0.900252 0.019516
vn -0.434932 0.900252 0.019516
vn -0.899346 -0.435372 0.040354
vn -0.899345 -0.435373 0.040355
vn -0.899345 -0.435373 0.040355
vn -0.899346 -0.435372 0.040354
vn -0.899345 -0.435373 0.040355
vn -0.899345 -0.435374 0.040355
vn -0.899345 -0.435373 0.040355
vn -0.899345 -0.435373 0.040355
vn -0.899345 -0.435374 0.040355
vn -0.899346 -0.435372 0.040355
vn -0.899346 -0.435372 0.040355
vn -0.899345 -0.435373 0.040355
vn -0.899346 -0.435372 0.040355
vn -0.899346 -0.435372 0.040354
vn -0.899346 -0.435372 0.040354
vn -0.899346 -0.435372 0.040355
vn 0.044826 0.000000 0.998995
vn 0.044826 0.000000 0.998995
vn 0.044826 0.000000 0.998995
vn 0.044826 0.000000 0.998995
vn -0.434937 0.900249 0.019516
vn -0.434937 0.900249 0.019516
vn -0.434937 0.900249 0.019516
vn -0.434937 0.900249 0.019516
vn -0.044826 0.000000 -0.998995
vn -0.044826 0.000000 -0.998995
vn -0.044826 0.000000 -0.998995
vn -0.044826 0.000000 -0.998995
vn 0.434935 -0.900250 -0.019516
vn 0.434935 -0.900250 -0.019516
vn 0.434935 -0.900250 -0.019516
vn 0.434935 -0.900250 -0.019516
vn 0.125028 -0.344511 -0.930419
vn 0.125028 -0.344511 -0.930419
vn 0.125028 -0.344511 -0.930419
vn 0.125028 -0.344511 -0.930419
vn -0.207856 0.344511 -0.915482
vn -0.207856 0.344511 -0.915482
vn -0.207856 0.344511 -0.915482
vn -0.207856 0.344511 -0.915482
vn -0.410996 0.829915 -0.377257
vn -0.410996 0.829915 -0.377257
vn -0.410996 0.829915 -0.377257
vn -0.410995 0.829916 -0.377257
vn -0.373899 0.836866 0.399818
vn -0.373899 0.836866 0.399818
vn -0.373899 0.836866 0.399818
vn -0.373899 0.836866 0.399818
vn -0.122291 0.345834 0.930292
vn -0.122291 0.345834 0.930292
vn -0.122291 0.345834 0.930292
vn -0.122291 0.345834 0.930292
vn 0.200973 -0.347830 0.915764
vn 0.200973 -0.347830 0.915764
vn 0.200973 -0.347830 0.915764
vn 0.200973 -0.347830 0.915764
vn 0.406480 -0.837676 0.364793
vn 0.406480 -0.837676 0.364793
vn 0.406480 -0.837676 0.364793
vn 0.406480 -0.837676 0.364793
vn 0.381698 -0.838390 -0.389112
vn 0.381698 -0.838390 -0.389112
vn 0.381698 -0.838390 -0.389112
vn 0.381698 -0.838390 -0.389113
vn -0.753316 -0.647520 -0.115036
vn -0.805536 -0.549530 -0.221650
vn -0.704320 -0.597647 -0.383081
vn -0.620319 -0.755272 -0.211584
vn -0.805536 -0.549530 -0.221650
vn -0.871991 -0.415673 -0.258549
vn -0.811219 -0.382326 -0.442437
vn -0.704320 -0.597647 -0.383081
vn -0.871991 -0.415673 -0.258549
vn -0.934874 -0.281816 -0.215846
vn -0.912372 -0.167005 -0.373747
vn -0.811219 -0.382326 -0.442437
vn -0.934874 -0.281816 -0.215846
vn -0.977336 -0.183826 -0.104984
vn -0.980676 -0.009380 -0.195415
vn -0.912372 -0.167005 -0.373747
vn -0.977336 -0.183826 -0.104984
vn -0.987999 -0.147959 0.044332
vn -0.997828 0.048315 0.044773
vn -0.980676 -0.009380 -0.195415
vn -0.987999 -0.147959 0.044332
vn -0.964006 -0.183826 0.192094
vn -0.959233 -0.009380 0.282460
vn -0.997828 0.048315 0.044773
vn -0.964006 -0.183826 0.192094
vn -0.911786 -0.281816 0.298707
vn -0.875232 -0.167005 0.453958
vn -0.959233 -0.009380 0.282460
vn -0.911786 -0.281816 0.298707
vn -0.845331 -0.415673 0.335607
vn -0.768333 -0.382326 0.513313
vn -0.875232 -0.167005 0.453958
vn -0.845331 -0.415673 0.335607
vn -0.782447 -0.549530 0.292904
vn -0.667180 -0.597647 0.444623
vn -0.768333 -0.382326 0.513313
vn -0.782447 -0.549530 0.292904
vn -0.739985 -0.647520 0.182042
vn -0.598876 -0.755272 0.266291
vn -0.667180 -0.597647 0.444623
vn -0.739985 -0.647520 0.182042
vn -0.729322 -0.683387 0.032725
vn -0.581725 -0.812967 0.026102
vn -0.598876 -0.755272 0.266291
vn -0.729322 -0.683387 0.032725
vn -0.753316 -0.647520 -0.115036
vn -0.620319 -0.755272 -0.211584
vn -0.581725 -0.812967 0.026102
vn -0.620319 -0.755272 -0.211584
vn -0.704320 -0.597647 -0.383081
vn -0.664614 -0.608552 -0.433534
vn -0.570754 -0.784678 -0.241908
vn -0.704320 -0.597647 -0.383081
vn -0.811219 -0.382326 -0.442437
vn -0.784059 -0.367960 -0.499857
vn -0.664614 -0.608552 -0.433534
vn -0.811219 -0.382326 -0.442437
vn -0.912372 -0.167005 -0.373747
vn -0.897085 -0.127368 -0.423103
vn -0.784059 -0.367960 -0.499857
vn -0.912372 -0.167005 -0.373747
vn -0.980676 -0.009380 -0.195415
vn -0.973405 0.048758 -0.223842
vn -0.897085 -0.127368 -0.423103
vn -0.980676 -0.009380 -0.195415
vn -0.997828 0.048315 0.044773
vn -0.992571 0.113225 0.044538
vn -0.973405 0.048758 -0.223842
vn -0.997828 0.048315 0.044773
vn -0.959233 -0.009380 0.282460
vn -0.949446 0.048758 0.310121
vn -0.992571 0.113225 0.044538
vn -0.959233 -0.009380 0.282460
vn -0.875232 -0.167005 0.453958
vn -0.855586 -0.127368 0.501747
vn -0.949446 0.048758 0.310121
vn -0.875232 -0.167005 0.453958
vn -0.768333 -0.382326 0.513313
vn -0.736140 -0.367960 0.568070
vn -0.855586 -0.127368 0.501747
vn -0.768333 -0.382326 0.513313
vn -0.667180 -0.597647 0.444623
vn -0.623116 -0.608552 0.491316
vn -0.736140 -0.367960 0.568070
vn -0.667180 -0.597647 0.444623
vn -0.598876 -0.755272 0.266291
vn -0.546795 -0.784678 0.292054
vn -0.623116 -0.608552 0.491316
vn -0.598876 -0.755272 0.266291
vn -0.581725 -0.812967 0.026102
vn -0.527629 -0.849145 0.023675
vn -0.546795 -0.784678 0.292054
vn -0.581725 -0.812967 0.026102
vn -0.620319 -0.755272 -0.211584
vn -0.570754 -0.784678 -0.241908
vn -0.527629 -0.849145 0.023675
vn 0.275846 -0.636574 -0.720196
vn 0.275846 -0.636574 -0.720196
vn 0.275846 -0.636574 -0.720196
vn 0.275846 -0.636574 -0.720196
vn 0.069270 -0.233002 -0.970006
vn 0.069270 -0.233002 -0.970006
vn 0.069270 -0.233002 -0.970006
vn 0.069270 -0.233002 -0.970006
vn -0.155867 0.233002 -0.959904
vn -0.155867 0.233002 -0.959904
vn -0.155867 0.233002 -0.959904
vn -0.155867 0.233002 -0.959904
vn -0.339240 0.636574 -0.692596
vn -0.339240 0.636574 -0.692596
vn -0.339240 0.636574 -0.692596
vn -0.339240 0.636574 -0.692596
vn -0.431713 0.869577 -0.239708
vn -0.431713 0.869577 -0.239708
vn -0.431713 0.869577 -0.239708
vn -0.431713 0.869577 -0.239708
vn -0.408509 0.869577 0.277409
vn -0.408509 0.869577 0.277409
vn -0.408509 0.869577 0.277409
vn -0.408509 0.869577 0.277409
vn -0.275846 0.636574 0.720196
vn -0.275846 0.636574 0.720196
vn -0.275846 0.636574 0.720196
vn -0.275846 0.636574 0.720196
vn -0.069270 0.233002 0.970006
vn -0.069270 0.233002 0.970006
vn -0.069270 0.233002 0.970006
vn -0.069270 0.233002 0.970006
vn 0.155867 -0.233002 0.959904
vn 0.155867 -0.233002 0.959904
vn 0.155867 -0.233002 0.959904
vn 0.155867 -0.233002 0.959904
vn 0.339240 -0.636574 0.692596
vn 0.339240 -0.636574 0.692596
vn 0.339240 -0.636574 0.692596
vn 0.339240 -0.636574 0.692596
vn 0.431713 -0.869577 0.239708
vn 0.431713 -0.869577 0.239708
vn 0.431713 -0.869577 0.239708
vn 0.431713 -0.869577 0.239708
vn 0.408509 -0.869577 -0.277409
vn 0.408509 -0.869577 -0.277409
vn 0.408509 -0.869577 -0.277409
vn 0.408509 -0.869577 -0.277409
vn 0.570754 0.784678 0.241908
vn 0.664614 0.608552 0.433534
vn 0.704320 0.597647 0.383082
vn 0.620319 0.755272 0.211584
vn 0.664614 0.608552 0.433534
vn 0.784059 0.367960 0.499857
vn 0.811219 0.382326 0.442437
vn 0.704320 0.597647 0.383082
vn 0.784059 0.367960 0.499857
vn 0.897085 0.127367 0.423103
vn 0.912372 0.167005 0.373747
vn 0.811219 0.382326 0.442437
vn 0.897085 0.127367 0.423103
vn 0.973405 -0.048758 0.223842
vn 0.980676 0.009380 0.195415
vn 0.912372 0.167005 0.373747
vn 0.973405 -0.048758 0.223842
vn 0.992571 -0.113225 -0.044538
vn 0.997828 -0.048315 -0.044773
vn 0.980676 0.009380 0.195415
vn 0.992571 -0.113225 -0.044538
vn 0.949446 -0.048758 -0.310121
vn 0.959233 0.009380 -0.282460
vn 0.997828 -0.048315 -0.044773
vn 0.949446 -0.048758 -0.310121
vn 0.855586 0.127367 -0.501747
vn 0.875232 0.167005 -0.453958
vn 0.959233 0.009380 -0.282460
vn 0.855586 0.127367 -0.501747
vn 0.736140 0.367960 -0.568070
vn 0.768333 0.382326 -0.513313
vn 0.875232 0.167005 -0.453958
vn 0.736140 0.367960 -0.568070
vn 0.623115 0.608552 -0.491316
vn 0.667180 0.597647 -0.444623
vn 0.768333 0.382326 -0.513313
vn 0.623115 0.608552 -0.491316
vn 0.546795 0.784678 -0.292054
vn 0.598876 0.755272 -0.266291
vn 0.667180 0.597647 -0.444623
vn 0.546795 0.784678 -0.292054
vn 0.527629 0.849145 -0.023675
vn 0.581725 0.812967 -0.026102
vn 0.598876 0.755272 -0.266291
vn 0.527629 0.849145 -0.023675
vn 0.570754 0.784678 0.241908
vn 0.620319 0.755272 0.211584
vn 0.581725 0.812967 -0.026102
vn 0.620319 0.755272 0.211584
vn 0.704320 0.597647 0.383082
vn 0.805536 0.549530 0.221650
vn 0.753316 0.647520 0.115036
vn 0.704320 0.597647 0.383082
vn 0.811219 0.382326 0.442437
vn 0.871991 0.415673 0.258550
vn 0.805536 0.549530 0.221650
vn 0.811219 0.382326 0.442437
vn 0.912372 0.167005 0.373747
vn 0.934874 0.281816 0.215846
vn 0.871991 0.415673 0.258550
vn 0.912372 0.167005 0.373747
vn 0.980676 0.009380 0.195415
vn 0.977337 0.183825 0.104984
vn 0.934874 0.281816 0.215846
vn 0.980676 0.009380 0.195415
vn 0.997828 -0.048315 -0.044773
vn 0.987999 0.147959 -0.044332
vn 0.977337 0.183825 0.104984
vn 0.997828 -0.048315 -0.044773
vn 0.959233 0.009380 -0.282460
vn 0.964006 0.183825 -0.192094
vn 0.987999 0.147959 -0.044332
vn 0.959233 0.009380 -0.282460
vn 0.875232 0.167005 -0.453958
vn 0.911786 0.281816 -0.298707
vn 0.964006 0.183825 -0.192094
vn 0.875232 0.167005 -0.453958
vn 0.768333 0.382326 -0.513313
vn 0.845331 0.415673 -0.335607
vn 0.911786 0.281816 -0.298707
vn 0.768333 0.382326 -0.513313
vn 0.667180 0.597647 -0.444623
vn 0.782447 0.549530 -0.292904
vn 0.845331 0.415673 -0.335607
vn 0.667180 0.597647 -0.444623
vn 0.598876 0.755272 -0.266291
vn 0.739985 0.647520 -0.182042
vn 0.782447 0.549530 -0.292904
vn 0.598876 0.755272 -0.266291
vn 0.581725 0.812967 -0.026102
vn 0.729322 0.683387 -0.032725
vn 0.739985 0.647520 -0.182042
vn 0.581725 0.812967 -0.026102
vn 0.620319 0.755272 0.211584
vn 0.753316 0.647520 0.115036
vn 0.729322 0.683387 -0.032725
vn -0.805536 -0.549530 -0.221650
vn -0.753316 -0.647520 -0.115036
vn -0.899347 -0.435369 0.040354
vn -0.871991 -0.415673 -0.258549
vn -0.805536 -0.549530 -0.221650
vn -0.899347 -0.435369 0.040354
vn -0.934874 -0.281816 -0.215846
vn -0.871991 -0.415673 -0.258549
vn -0.899347 -0.435369 0.040354
vn -0.977336 -0.183826 -0.104984
vn -0.934874 -0.281816 -0.215846
vn -0.899347 -0.435369 0.040354
vn -0.987999 -0.147959 0.044332
vn -0.977336 -0.183826 -0.104984
vn -0.899347 -0.435369 0.040354
vn -0.964006 -0.183826 0.192094
vn -0.987999 -0.147959 0.044332
vn -0.899347 -0.435369 0.040354
vn -0.911786 -0.281816 0.298707
vn -0.964006 -0.183826 0.192094
vn -0.899347 -0.435369 0.040354
vn -0.845331 -0.415673 0.335607
vn -0.911786 -0.281816 0.298707
vn -0.899347 -0.435369 0.040354
vn -0.782447 -0.549530 0.292904
vn -0.845331 -0.415673 0.335607
vn -0.899347 -0.435369 0.040354
vn -0.739985 -0.647520 0.182042
vn -0.782447 -0.549530 0.292904
vn -0.899347 -0.435369 0.040354
vn -0.729322 -0.683387 0.032725
vn -0.739985 -0.647520 0.182042
vn -0.899347 -0.435369 0.040354
vn -0.753316 -0.647520 -0.115036
vn -0.729322 -0.683387 0.032725
vn -0.899347 -0.435369 0.040354
vn 0.753316 0.647520 0.115036
vn 0.805536 0.549530 0.221650
vn 0.899347 0.435369 -0.040354
vn 0.805536 0.549530 0.221650
vn 0.871991 0.415673 0.258550
vn 0.899347 0.435369 -0.040354
vn 0.871991 0.415673 0.258550
vn 0.934874 0.281816 0.215846
vn 0.899347 0.435369 -0.040354
vn 0.934874 0.281816 0.215846
vn 0.977337 0.183825 0.104984
vn 0.899347 0.435369 -0.040354
vn 0.977337 0.183825 0.104984
vn 0.987999 0.147959 -0.044332
vn 0.899347 0.435369 -0.040354
vn 0.987999 0.147959 -0.044332
vn 0.964006 0.183825 -0.192094
vn 0.899347 0.435369 -0.040354
vn 0.964006 0.183825 -0.192094
vn 0.911786 0.281816 -0.298707
vn 0.899347 0.435369 -0.040354
vn 0.911786 0.281816 -0.298707
vn 0.845331 0.415673 -0.335607
vn 0.899347 0.435369 -0.040354
vn 0.845331 0.415673 -0.335607
vn 0.782447 0.549530 -0.292904
vn 0.899347 0.435369 -0.040354
vn 0.782447 0.549530 -0.292904
vn 0.739985 0.647520 -0.182042
vn 0.899347 0.435369 -0.040354
vn 0.739985 0.647520 -0.182042
vn 0.729322 0.683387 -0.032725
vn 0.899347 0.435369 -0.040354
vn 0.729322 0.683387 -0.032725
vn 0.753316 0.647520 0.115036
vn 0.899347 0.435369 -0.040354
vn 0.038185 -0.003214 0.999266
vn 0.038185 -0.003214 0.999266
vn 0.038185 -0.003214 0.999266
vn 0.038185 -0.003214 0.999266
vn 0.910132 -0.412742 -0.036107
vn 0.910132 -0.412742 -0.036107
vn 0.910132 -0.412742 -0.036107
vn 0.910132 -0.412742 -0.036107
vn -0.038185 0.003214 -0.999266
vn -0.038185 0.003214 -0.999266
vn -0.038185 0.003214 -0.999266
vn -0.038185 0.003214 -0.999266
vn -0.910132 0.412742 0.036107
vn -0.910132 0.412742 0.036107
vn -0.910132 0.412742 0.036107
vn -0.910132 0.412742 0.036107
vn -0.412555 -0.910843 0.012835
vn -0.412555 -0.910843 0.012835
vn -0.412555 -0.910843 0.012835
vn -0.412555 -0.910843 0.012835
vn 0.412555 0.910843 -0.012835
vn 0.412555 0.910843 -0.012835
vn 0.412555 0.910843 -0.012835
vn 0.412555 0.910843 -0.012835
vn -0.907384 -0.418327 0.040716
vn -0.907384 -0.418327 0.040716
vn -0.907384 -0.418327 0.040716
vn -0.907384 -0.418327 0.040716
vn -0.907384 -0.418327 0.040716
vn -0.907384 -0.418327 0.040716
vn -0.907384 -0.418327 0.040716
vn -0.907384 -0.418327 0.040716
vn -0.907384 -0.418327 0.040716
vn -0.907384 -0.418327 0.040716
vn -0.907384 -0.418327 0.040716
vn -0.907384 -0.418327 0.040716
vn -0.907384 -0.418327 0.040716
vn -0.907384 -0.418327 0.040716
vn -0.907384 -0.418327 0.040716
vn -0.907384 -0.418327 0.040716
vn -0.907384 -0.418327 0.040716
vn -0.907384 -0.418327 0.040716
vn -0.907384 -0.418327 0.040716
vn -0.907384 -0.418327 0.040716
vn -0.907384 -0.418327 0.040716
vn -0.907384 -0.418327 0.040716
vn -0.907384 -0.418327 0.040716
vn -0.907384 -0.418327 0.040716
vn -0.907384 -0.418327 0.040716
vn -0.907384 -0.418327 0.040716
vn -0.907384 -0.418327 0.040716
vn -0.907384 -0.418327 0.040716
vn -0.907384 -0.418327 0.040716
vn -0.907384 -0.418327 0.040716
vn -0.907384 -0.418327 0.040716
vn -0.907384 -0.418327 0.040716
vn -0.907384 -0.418327 0.040716
vn -0.907384 -0.418327 0.040716
vn -0.907384 -0.418327 0.040716
vn -0.907384 -0.418327 0.040716
vn -0.907384 -0.418327 0.040716
vn -0.907384 -0.418327 0.040716
vn -0.907384 -0.418327 0.040716
vn -0.907384 -0.418327 0.040716
vn -0.907384 -0.418327 0.040716
vn -0.907384 -0.418327 0.040716
vn -0.907384 -0.418327 0.040716
vn -0.907384 -0.418327 0.040716
vn -0.907384 -0.418327 0.040716
vn -0.907384 -0.418327 0.040716
vn -0.907384 -0.418327 0.040716
vn -0.907384 -0.418327 0.040716
vn 0.263807 -0.642263 -0.719656
vn 0.263807 -0.642263 -0.719656
vn 0.263807 -0.642263 -0.719656
vn 0.263807 -0.642263 -0.719656
vn 0.064863 -0.235085 -0.969808
vn 0.064864 -0.235085 -0.969808
vn 0.064863 -0.235085 -0.969808
vn 0.064864 -0.235085 -0.969808
vn -0.151461 0.235084 -0.960102
vn -0.151461 0.235084 -0.960102
vn -0.151461 0.235084 -0.960102
vn -0.151461 0.235084 -0.960102
vn -0.327201 0.642263 -0.693136
vn -0.327201 0.642263 -0.693136
vn -0.327201 0.642263 -0.693136
vn -0.327201 0.642263 -0.693136
vn -0.415268 0.877347 -0.240446
vn -0.415268 0.877347 -0.240446
vn -0.415268 0.877347 -0.240446
vn -0.415268 0.877347 -0.240446
vn -0.392065 0.877347 0.276671
vn -0.392065 0.877347 0.276671
vn -0.392065 0.877347 0.276671
vn -0.392065 0.877347 0.276671
vn -0.263808 0.642263 0.719655
vn -0.263808 0.642263 0.719655
vn -0.263808 0.642263 0.719655
vn -0.263808 0.642263 0.719655
vn -0.064863 0.235084 0.969808
vn -0.064863 0.235084 0.969808
vn -0.064863 0.235084 0.969808
vn -0.064863 0.235084 0.969808
vn 0.151461 -0.235085 0.960101
vn 0.151461 -0.235085 0.960101
vn 0.151461 -0.235085 0.960101
vn 0.151461 -0.235085 0.960101
vn 0.327201 -0.642263 0.693136
vn 0.327201 -0.642263 0.693136
vn 0.327201 -0.642263 0.693136
vn 0.327201 -0.642263 0.693136
vn 0.415268 -0.877347 0.240446
vn 0.415268 -0.877347 0.240446
vn 0.415268 -0.877347 0.240446
vn 0.415268 -0.877347 0.240446
vn 0.392065 -0.877347 -0.276672
vn 0.392065 -0.877347 -0.276672
vn 0.392065 -0.877347 -0.276672
vn 0.392065 -0.877347 -0.276672
vn 0.907384 0.418327 -0.040716
vn 0.907384 0.418327 -0.040716
vn 0.907384 0.418327 -0.040716
vn 0.907384 0.418327 -0.040716
vn 0.907384 0.418327 -0.040716
vn 0.907384 0.418327 -0.040716
vn 0.907384 0.418327 -0.040716
vn 0.907384 0.418327 -0.040716
vn 0.907384 0.418327 -0.040716
vn 0.907384 0.418327 -0.040716
vn 0.907384 0.418327 -0.040716
vn 0.907384 0.418327 -0.040716
vn 0.907384 0.418327 -0.040716
vn 0.907384 0.418327 -0.040716
vn 0.907384 0.418327 -0.040716
vn 0.907384 0.418327 -0.040716
vn 0.907384 0.418327 -0.040716
vn 0.907384 0.418327 -0.040716
vn 0.907384 0.418327 -0.040716
vn 0.907384 0.418327 -0.040716
vn 0.907384 0.418327 -0.040716
vn 0.907384 0.418327 -0.040716
vn 0.907384 0.418327 -0.040716
vn 0.907384 0.418327 -0.040716
vn 0.907384 0.418327 -0.040716
vn 0.907384 0.418327 -0.040716
vn 0.907384 0.418327 -0.040716
vn 0.907384 0.418327 -0.040716
vn 0.907384 0.418327 -0.040716
vn 0.907384 0.418327 -0.040716
vn 0.907384 0.418327 -0.040716
vn 0.907384 0.418327 -0.040716
vn 0.907384 0.418327 -0.040716
vn 0.907384 0.418327 -0.040716
vn 0.907384 0.418327 -0.040716
vn 0.907384 0.418327 -0.040716
vn 0.907384 0.418327 -0.040716
vn 0.907384 0.418327 -0.040716
vn 0.907384 0.418327 -0.040716
vn 0.907384 0.418327 -0.040716
vn 0.907384 0.418327 -0.040716
vn 0.907384 0.418327 -0.040716
vn 0.907384 0.418327 -0.040716
vn 0.907384 0.418327 -0.040716
vn 0.907384 0.418327 -0.040716
vn 0.907384 0.418327 -0.040716
vn 0.907384 0.418327 -0.040716
vn 0.907384 0.418327 -0.040716
vn -0.907384 -0.418327 0.040716
vn -0.907384 -0.418327 0.040716
vn -0.907384 -0.418327 0.040716
vn -0.907384 -0.418327 0.040716
vn -0.907384 -0.418327 0.040716
vn -0.907384 -0.418327 0.040716
vn -0.907384 -0.418327 0.040716
vn -0.907384 -0.418327 0.040716
vn -0.907384 -0.418327 0.040716
vn -0.907384 -0.418327 0.040716
vn -0.907384 -0.418327 0.040716
vn -0.907384 -0.418327 0.040716
vn -0.907384 -0.418327 0.040716
vn -0.907384 -0.418327 0.040716
vn -0.907384 -0.418327 0.040716
vn -0.907384 -0.418327 0.040716
vn -0.907384 -0.418327 0.040716
vn -0.907384 -0.418327 0.040716
vn -0.907384 -0.418327 0.040716
vn -0.907384 -0.418327 0.040716
vn -0.907384 -0.418327 0.040716
vn -0.907384 -0.418327 0.040716
vn -0.907384 -0.418327 0.040716
vn -0.907384 -0.418327 0.040716
vn -0.907384 -0.418327 0.040716
vn -0.907384 -0.418327 0.040716
vn -0.907384 -0.418327 0.040716
vn -0.907384 -0.418327 0.040716
vn -0.907384 -0.418327 0.040716
vn -0.907384 -0.418327 0.040716
vn -0.907384 -0.418327 0.040716
vn -0.907384 -0.418327 0.040716
vn -0.907384 -0.418327 0.040716
vn -0.907384 -0.418327 0.040716
vn -0.907384 -0.418327 0.040716
vn -0.907384 -0.418327 0.040716
vn 0.907384 0.418326 -0.040716
vn 0.907384 0.418327 -0.040716
vn 0.907384 0.418326 -0.040716
vn 0.907384 0.418327 -0.040716
vn 0.907383 0.418327 -0.040717
vn 0.907384 0.418326 -0.040716
vn 0.907383 0.418327 -0.040717
vn 0.907384 0.418326 -0.040716
vn 0.907384 0.418326 -0.040716
vn 0.907384 0.418326 -0.040716
vn 0.907384 0.418327 -0.040716
vn 0.907384 0.418326 -0.040716
vn 0.907384 0.418327 -0.040716
vn 0.907384 0.418327 -0.040716
vn 0.907384 0.418326 -0.040716
vn 0.907384 0.418327 -0.040716
vn 0.907384 0.418327 -0.040716
vn 0.907384 0.418326 -0.040716
vn 0.907384 0.418327 -0.040716
vn 0.907384 0.418326 -0.040715
vn 0.907384 0.418326 -0.040716
vn 0.907384 0.418326 -0.040715
vn 0.907384 0.418327 -0.040713
vn 0.907384 0.418326 -0.040716
vn 0.907384 0.418327 -0.040713
vn 0.907384 0.418327 -0.040716
vn 0.907384 0.418326 -0.040716
vn 0.907384 0.418327 -0.040716
vn 0.907384 0.418326 -0.040715
vn 0.907384 0.418326 -0.040716
vn 0.907384 0.418326 -0.040715
vn 0.907384 0.418327 -0.040716
vn 0.907384 0.418326 -0.040716
vn 0.907384 0.418327 -0.040716
vn 0.907384 0.418326 -0.040716
vn 0.907384 0.418326 -0.040716
vn 0.263808 -0.642263 -0.719655
vn 0.263808 -0.642263 -0.719655
vn 0.263808 -0.642263 -0.719655
vn 0.263808 -0.642263 -0.719655
vn 0.064864 -0.235084 -0.969808
vn 0.064864 -0.235084 -0.969808
vn 0.064864 -0.235084 -0.969808
vn 0.064864 -0.235084 -0.969808
vn -0.151461 0.235084 -0.960102
vn -0.151461 0.235084 -0.960102
vn -0.151461 0.235084 -0.960102
vn -0.151461 0.235084 -0.960102
vn -0.327202 0.642263 -0.693136
vn -0.327202 0.642263 -0.693135
vn -0.327202 0.642263 -0.693135
vn -0.327202 0.642263 -0.693136
vn -0.415268 0.877347 -0.240446
vn -0.415268 0.877347 -0.240446
vn -0.415268 0.877347 -0.240446
vn -0.415268 0.877347 -0.240446
vn -0.392064 0.877347 0.276672
vn -0.392064 0.877347 0.276672
vn -0.392064 0.877347 0.276672
vn -0.392064 0.877347 0.276672
vn -0.263809 0.642263 0.719655
vn -0.263809 0.642263 0.719655
vn -0.263809 0.642263 0.719655
vn -0.263809 0.642263 0.719655
vn -0.064864 0.235085 0.969808
vn -0.064864 0.235085 0.969808
vn -0.064864 0.235085 0.969808
vn -0.064864 0.235085 0.969808
vn 0.151461 -0.235084 0.960102
vn 0.151461 -0.235084 0.960102
vn 0.151461 -0.235084 0.960102
vn 0.151461 -0.235084 0.960102
vn 0.327201 -0.642263 0.693136
vn 0.327201 -0.642263 0.693136
vn 0.327201 -0.642263 0.693136
vn 0.327201 -0.642263 0.693136
vn 0.415267 -0.877348 0.240445
vn 0.415267 -0.877348 0.240445
vn 0.415267 -0.877348 0.240445
vn 0.415267 -0.877348 0.240445
vn 0.392063 -0.877348 -0.276671
vn 0.392063 -0.877348 -0.276671
vn 0.392063 -0.877348 -0.276671
vn 0.392063 -0.877348 -0.276671
vn 0.741593 0.345821 0.574846
vn 0.741593 0.345821 0.574846
vn 0.741593 0.345821 0.574846
vn 0.741593 0.345821 0.574846
vn 0.510757 0.264494 -0.818029
vn 0.510757 0.264494 -0.818029
vn 0.510757 0.264494 -0.818029
vn 0.510757 0.264494 -0.818029
vn -0.741593 -0.345821 -0.574846
vn -0.741593 -0.345821 -0.574846
vn -0.741593 -0.345821 -0.574846
vn -0.741593 -0.345821 -0.574846
vn -0.510757 -0.264494 0.818029
vn -0.510757 -0.264494 0.818029
vn -0.510757 -0.264494 0.818029
vn -0.510757 -0.264494 0.818029
vn 0.434935 -0.900250 -0.019516
vn 0.434935 -0.900250 -0.019516
vn 0.434935 -0.900250 -0.019516
vn 0.434935 -0.900250 -0.019516
vn -0.434935 0.900250 0.019516
vn -0.434935 0.900250 0.019516
vn -0.434935 0.900250 0.019516
vn -0.434935 0.900250 0.019516
vn -0.695717 -0.349721 0.627433
vn -0.695717 -0.349721 0.627433
vn -0.695717 -0.349721 0.627433
vn -0.695717 -0.349721 0.627433
vn 0.571671 0.259315 0.778426
vn 0.571671 0.259315 0.778426
vn 0.571671 0.259315 0.778426
vn 0.571671 0.259315 0.778426
vn 0.695717 0.349721 -0.627433
vn 0.695717 0.349721 -0.627433
vn 0.695717 0.349721 -0.627433
vn 0.695717 0.349721 -0.627433
vn -0.571671 -0.259315 -0.778426
vn -0.571671 -0.259315 -0.778426
vn -0.571671 -0.259315 -0.778426
vn -0.571671 -0.259315 -0.778426
vn 0.434935 -0.900250 -0.019516
vn 0.434935 -0.900250 -0.019516
vn 0.434935 -0.900250 -0.019516
vn 0.434935 -0.900250 -0.019516
vn -0.434935 0.900250 0.019516
vn -0.434935 0.900250 0.019516
vn -0.434935 0.900250 0.019516
vn -0.434935 0.900250 0.019516
vn 0.049644 0.002333 0.998764
vn 0.049644 0.002333 0.998764
vn 0.049644 0.002333 0.998764
vn 0.049644 0.002333 0.998764
vn 0.200058 0.979708 -0.012232
vn 0.200058 0.979708 -0.012232
vn 0.200058 0.979708 -0.012232
vn 0.200058 0.979708 -0.012232
vn -0.049644 -0.002333 -0.998764
vn -0.049644 -0.002333 -0.998764
vn -0.049644 -0.002333 -0.998764
vn -0.049644 -0.002333 -0.998764
vn -0.200058 -0.979708 0.012232
vn -0.200058 -0.979708 0.012232
vn -0.200058 -0.979708 0.012232
vn -0.200058 -0.979708 0.012232
vn 0.978525 -0.200419 -0.048170
vn 0.978525 -0.200419 -0.048170
vn 0.978525 -0.200419 -0.048170
vn 0.978525 -0.200419 -0.048170
vn -0.978525 0.200419 0.048170
vn -0.978525 0.200419 0.048170
vn -0.978525 0.200419 0.048170
vn -0.978525 0.200419 0.048170
s off
g pCube8 polySurface5 polySurface3 polySurface1 group
usemtl lambert2SG
f 1/25/1 2/26/2 9/27/3 10/28/4
f 3/17/5 4/18/6 6/19/7 5/20/8
f 11/33/9 12/34/10 8/35/11 7/36/12
f 7/21/13 8/22/14 2/23/15 1/24/16
f 2/1/17 8/2/18 12/3/19 9/4/20
f 7/9/21 1/10/22 10/11/23 11/12/24
f 10/28/25 9/27/26 13/29/27 14/30/28
f 11/12/29 10/11/30 14/13/31 15/14/32
f 15/37/33 16/38/34 12/34/35 11/33/36
f 9/4/37 12/3/38 16/5/39 13/6/40
f 14/30/41 13/29/42 4/31/43 3/32/44
f 15/14/45 14/13/46 3/15/47 5/16/48
f 5/39/49 6/40/50 16/38/51 15/37/52
f 13/6/53 16/5/54 6/7/55 4/8/56
g pCube8 pCylinder1 polySurface5 polySurface3 polySurface1 group
f 17/55/57 18/59/58 48/60/59 49/56/60
f 18/129/61 19/130/62 47/131/63 48/132/64
f 19/130/65 20/133/66 46/134/67 47/131/68
f 20/47/69 21/41/70 45/44/71 46/48/72
f 21/41/73 22/42/74 44/43/75 45/44/76
f 22/42/77 23/45/78 43/46/79 44/43/80
f 23/45/81 24/49/82 42/50/83 43/46/84
f 24/135/85 25/136/86 41/137/87 42/138/88
f 25/136/89 26/139/90 52/140/91 41/137/92
f 26/57/93 27/51/94 51/54/95 52/58/96
f 27/51/97 28/52/98 50/53/99 51/54/100
f 28/52/101 17/55/102 49/56/103 50/53/104
f 54/141/105 53/142/106 55/143/107 56/144/108
f 57/62/109 54/65/110 56/66/111 58/63/112
f 59/61/113 57/62/114 58/63/115 60/64/116
f 61/67/117 59/61/118 60/64/119 62/68/120
f 63/69/121 61/67/122 62/68/123 64/70/124
f 65/147/125 63/148/126 64/149/127 66/150/128
f 67/151/129 65/147/130 66/150/131 68/152/132
f 69/72/133 67/75/134 68/76/135 70/73/136
f 71/71/137 69/72/138 70/73/139 72/74/140
f 73/77/141 71/71/142 72/74/143 74/78/144
f 75/79/145 73/77/146 74/78/147 76/80/148
f 53/142/149 75/145/150 76/146/151 55/143/152
f 42/81/153 41/82/154 53/83/155 54/84/156
f 37/105/157 36/106/158 56/107/159 55/108/160
f 43/87/161 42/81/162 54/84/163 57/88/164
f 36/106/165 35/114/166 58/119/167 56/107/168
f 44/91/169 43/87/170 57/88/171 59/92/172
f 35/114/173 34/113/174 60/125/175 58/119/176
f 45/95/177 44/91/178 59/92/179 61/96/180
f 34/113/181 33/112/182 62/124/183 60/125/184
f 46/99/185 45/95/186 61/96/187 63/100/188
f 33/112/189 32/111/190 64/123/191 62/124/192
f 47/103/193 46/99/194 63/100/195 65/104/196
f 32/111/197 31/110/198 66/122/199 64/123/200
f 48/101/201 47/103/202 65/104/203 67/102/204
f 31/110/205 30/109/206 68/121/207 66/122/208
f 49/97/209 48/101/210 67/102/211 69/98/212
f 30/109/213 29/118/214 70/128/215 68/121/216
f 50/93/217 49/97/218 69/98/219 71/94/220
f 29/118/221 40/117/222 72/127/223 70/128/224
f 51/89/225 50/93/226 71/94/227 73/90/228
f 40/117/229 39/116/230 74/126/231 72/127/232
f 52/85/233 51/89/234 73/90/235 75/86/236
f 39/116/237 38/115/238 76/120/239 74/126/240
f 41/82/241 52/85/242 75/86/243 53/83/244
f 38/115/245 37/105/246 55/108/247 76/120/248
f 30/109/249 31/110/250 32/111/251 33/112/252 34/113/253 35/114/254 36/106/255 37/105/256 38/115/257 39/116/258 40/117/259 29/118/260
g pCube2 pCube8 pCylinder1 polySurface5 polySurface3 polySurface1 group
f 77/153/261 78/154/262 80/156/263 79/155/264
f 93/183/265 94/184/266 95/185/267 96/186/268
f 81/157/269 82/158/270 84/160/271 83/159/272
f 87/172/273 88/173/274 78/162/275 77/161/276
f 78/154/277 88/174/278 85/168/279 80/156/280
f 87/171/281 77/153/282 79/155/283 86/169/284
f 86/170/285 85/167/286 89/175/287 90/178/288
f 91/179/289 87/171/290 86/169/291 90/177/292
f 91/180/293 92/181/294 88/173/295 87/172/296
f 85/168/297 88/174/298 92/182/299 89/176/300
f 98/187/301 97/188/302 99/189/303 100/190/304
f 83/165/305 91/179/306 90/177/307 81/166/308
f 83/159/309 84/160/310 92/181/311 91/180/312
f 89/176/313 92/182/314 84/163/315 82/164/316
f 79/155/317 80/156/318 94/184/319 93/183/320
f 80/156/321 85/167/322 95/185/323 94/184/324
f 85/167/325 86/170/326 96/186/327 95/185/328
f 86/170/329 79/155/330 93/183/331 96/186/332
f 90/178/333 89/175/334 97/188/335 98/187/336
f 89/175/337 82/158/338 99/189/339 97/188/340
f 82/158/341 81/157/342 100/190/343 99/189/344
f 81/157/345 90/178/346 98/187/347 100/190/348
g pCube2 pCube8 pCylinder1 pCylinder2 polySurface5 polySurface3 polySurface1 group
f 101/191/349 102/192/350 110/201/351 109/200/352
f 102/192/353 103/193/354 111/202/355 110/201/356
f 103/193/357 104/194/358 112/203/359 111/202/360
f 104/194/361 105/195/362 113/204/363 112/203/364
f 105/195/365 106/196/366 114/205/367 113/204/368
f 106/196/369 107/197/370 115/206/371 114/205/372
f 107/197/373 108/198/374 116/207/375 115/206/376
f 108/198/377 101/199/378 109/208/379 116/207/380
g pCube2 pCube3 pCube8 pCylinder1 pCylinder2 polySurface5 polySurface3 polySurface1 group
usemtl lambert3SG
f 117/213/381 124/214/382 123/217/383 119/220/384 118/209/385
f 118/209/386 119/220/387 121/215/388 120/210/389
f 120/210/390 121/215/391 126/225/392 125/221/393 122/216/394
f 139/238/395 140/239/396 141/240/397 142/241/398
f 123/217/399 126/218/400 121/219/401 119/220/402
f 122/211/403 117/213/404 118/209/405 120/212/406
f 123/223/407 124/224/408 125/221/409 126/225/410
f 122/216/411 125/221/412 128/227/413 127/226/414
f 125/221/415 124/224/416 129/228/417 128/227/418
f 124/224/419 117/222/420 130/229/421 129/228/422
f 117/222/423 122/216/424 127/226/425 130/229/426
f 127/226/427 128/227/428 132/231/429 131/230/430
f 128/227/431 129/228/432 133/232/433 132/231/434
f 129/228/435 130/229/436 134/233/437 133/232/438
f 130/229/439 127/226/440 131/230/441 134/233/442
f 131/230/443 132/231/444 136/235/445 135/234/446
f 132/231/447 133/232/448 137/236/449 136/235/450
f 133/232/451 134/233/452 138/237/453 137/236/454
f 134/233/455 131/230/456 135/234/457 138/237/458
f 135/234/459 136/235/460 140/239/461 139/238/462
f 136/235/463 137/236/464 141/240/465 140/239/466
f 137/236/467 138/237/468 142/241/469 141/240/470
f 138/237/471 135/234/472 139/238/473 142/241/474
g pCube2 pCube3 pCube8 pCylinder1 pCylinder2 pCylinder4 polySurface5 polySurface3 polySurface1 group
usemtl lambert2SG
f 143/242/475 144/243/476 152/252/477 151/251/478
f 144/243/479 145/244/480 153/253/481 152/252/482
f 145/244/483 146/245/484 154/254/485 153/253/486
f 146/245/487 147/246/488 155/255/489 154/254/490
f 147/246/491 148/247/492 156/256/493 155/255/494
f 148/247/495 149/248/496 157/257/497 156/256/498
f 149/248/499 150/249/500 158/258/501 157/257/502
f 150/249/503 143/250/504 151/259/505 158/258/506
g pCube2 pCube3 pCube8 pCylinder1 pCylinder2 pCylinder3 pCylinder4 polySurface5 polySurface3 polySurface1 group
f 159/260/507 160/261/508 172/273/509 171/272/510
f 160/261/511 161/262/512 173/274/513 172/273/514
f 161/262/515 162/263/516 174/275/517 173/274/518
f 162/263/519 163/264/520 175/276/521 174/275/522
f 163/264/523 164/265/524 176/277/525 175/276/526
f 164/265/527 165/266/528 177/278/529 176/277/530
f 165/266/531 166/267/532 178/279/533 177/278/534
f 166/267/535 167/268/536 179/280/537 178/279/538
f 167/268/539 168/269/540 180/281/541 179/280/542
f 168/269/543 169/270/544 181/282/545 180/281/546
f 169/270/547 170/271/548 182/283/549 181/282/550
f 170/271/551 159/260/552 171/272/553 182/283/554
f 171/272/555 172/273/556 184/285/557 183/284/558
f 172/273/559 173/274/560 185/286/561 184/285/562
f 173/274/563 174/275/564 186/287/565 185/286/566
f 174/275/567 175/276/568 187/288/569 186/287/570
f 175/276/571 176/277/572 188/289/573 187/288/574
f 176/277/575 177/278/576 189/290/577 188/289/578
f 177/278/579 178/279/580 190/291/581 189/290/582
f 178/279/583 179/280/584 191/292/585 190/291/586
f 179/280/587 180/281/588 192/293/589 191/292/590
f 180/281/591 181/282/592 193/294/593 192/293/594
f 181/282/595 182/283/596 194/295/597 193/294/598
f 182/283/599 171/272/600 183/284/601 194/295/602
f 183/296/603 184/297/604 196/310/605 195/309/606
f 184/297/607 185/298/608 197/311/609 196/310/610
f 185/298/611 186/299/612 198/312/613 197/311/614
f 186/299/615 187/300/616 199/313/617 198/312/618
f 187/300/619 188/301/620 200/314/621 199/313/622
f 188/301/623 189/302/624 201/315/625 200/314/626
f 189/302/627 190/303/628 202/316/629 201/315/630
f 190/303/631 191/304/632 203/317/633 202/316/634
f 191/304/635 192/305/636 204/318/637 203/317/638
f 192/305/639 193/306/640 205/319/641 204/318/642
f 193/306/643 194/307/644 206/320/645 205/319/646
f 194/307/647 183/308/648 195/321/649 206/320/650
f 195/332/651 196/331/652 208/343/653 207/344/654
f 196/331/655 197/330/656 209/342/657 208/343/658
f 197/330/659 198/329/660 210/341/661 209/342/662
f 198/329/663 199/328/664 211/340/665 210/341/666
f 199/328/667 200/327/668 212/339/669 211/340/670
f 200/327/671 201/326/672 213/338/673 212/339/674
f 201/326/675 202/325/676 214/337/677 213/338/678
f 202/325/679 203/324/680 215/336/681 214/337/682
f 203/324/683 204/323/684 216/335/685 215/336/686
f 204/323/687 205/322/688 217/334/689 216/335/690
f 205/322/691 206/333/692 218/345/693 217/334/694
f 206/333/695 195/332/696 207/344/697 218/345/698
f 207/344/699 208/343/700 220/355/701 219/356/702
f 208/343/703 209/342/704 221/354/705 220/355/706
f 209/342/707 210/341/708 222/353/709 221/354/710
f 210/341/711 211/340/712 223/352/713 222/353/714
f 211/340/715 212/339/716 224/351/717 223/352/718
f 212/339/719 213/338/720 225/350/721 224/351/722
f 213/338/723 214/337/724 226/349/725 225/350/726
f 214/337/727 215/336/728 227/348/729 226/349/730
f 215/336/731 216/335/732 228/347/733 227/348/734
f 216/335/735 217/334/736 229/346/737 228/347/738
f 217/334/739 218/345/740 230/357/741 229/346/742
f 218/345/743 207/344/744 219/356/745 230/357/746
f 160/261/747 159/260/748 231/358/749
f 161/262/750 160/261/751 231/358/752
f 162/263/753 161/262/754 231/358/755
f 163/264/756 162/263/757 231/358/758
f 164/265/759 163/264/760 231/358/761
f 165/266/762 164/265/763 231/358/764
f 166/267/765 165/266/766 231/358/767
f 167/268/768 166/267/769 231/358/770
f 168/269/771 167/268/772 231/358/773
f 169/270/774 168/269/775 231/358/776
f 170/271/777 169/270/778 231/358/779
f 159/260/780 170/271/781 231/358/782
f 219/356/783 220/355/784 232/359/785
f 220/355/786 221/354/787 232/359/788
f 221/354/789 222/353/790 232/359/791
f 222/353/792 223/352/793 232/359/794
f 223/352/795 224/351/796 232/359/797
f 224/351/798 225/350/799 232/359/800
f 225/350/801 226/349/802 232/359/803
f 226/349/804 227/348/805 232/359/806
f 227/348/807 228/347/808 232/359/809
f 228/347/810 229/346/811 232/359/812
f 229/346/813 230/357/814 232/359/815
f 230/357/816 219/356/817 232/359/818
g pCube2 pCube3 pCube4 pCube8 pCylinder1 pCylinder2 pCylinder3 pCylinder4 polySurface5 polySurface3 polySurface1 group
f 233/360/819 234/361/820 236/363/821 235/362/822
f 235/362/823 236/363/824 238/365/825 237/364/826
f 237/364/827 238/365/828 240/367/829 239/366/830
f 239/366/831 240/367/832 234/369/833 233/368/834
f 234/361/835 240/370/836 238/371/837 236/363/838
f 239/372/839 233/360/840 235/362/841 237/373/842
g pCube2 pCube3 pCube4 pCube8 pCylinder1 pCylinder2 pCylinder3 pCylinder4 pCylinder5 polySurface5 polySurface3 polySurface1 group
usemtl lambert3SG
f 241/374/843 242/375/844 254/387/845 253/386/846
f 242/375/847 243/376/848 255/388/849 254/387/850
f 243/376/851 244/377/852 256/389/853 255/388/854
f 244/377/855 245/378/856 257/390/857 256/389/858
f 245/378/859 246/379/860 258/391/861 257/390/862
f 246/379/863 247/380/864 259/392/865 258/391/866
f 247/380/867 248/381/868 260/393/869 259/392/870
f 248/381/871 249/382/872 261/394/873 260/393/874
f 249/382/875 250/383/876 262/395/877 261/394/878
f 250/383/879 251/384/880 263/396/881 262/395/882
f 251/384/883 252/385/884 264/397/885 263/396/886
f 252/385/887 241/374/888 253/386/889 264/397/890
f 253/398/891 254/399/892 266/412/893 265/411/894
f 254/399/895 255/400/896 267/413/897 266/412/898
f 255/400/899 256/401/900 268/414/901 267/413/902
f 256/401/903 257/402/904 269/415/905 268/414/906
f 257/402/907 258/403/908 270/416/909 269/415/910
f 258/403/911 259/404/912 271/417/913 270/416/914
f 259/404/915 260/405/916 272/418/917 271/417/918
f 260/405/919 261/406/920 273/419/921 272/418/922
f 261/406/923 262/407/924 274/420/925 273/419/926
f 262/407/927 263/408/928 275/421/929 274/420/930
f 263/408/931 264/409/932 276/422/933 275/421/934
f 264/409/935 253/410/936 265/423/937 276/422/938
f 265/434/939 266/433/940 278/445/941 277/446/942
f 266/433/943 267/432/944 279/444/945 278/445/946
f 267/432/947 268/431/948 280/443/949 279/444/950
f 268/431/951 269/430/952 281/442/953 280/443/954
f 269/430/955 270/429/956 282/441/957 281/442/958
f 270/429/959 271/428/960 283/440/961 282/441/962
f 271/428/963 272/427/964 284/439/965 283/440/966
f 272/427/967 273/426/968 285/438/969 284/439/970
f 273/426/971 274/425/972 286/437/973 285/438/974
f 274/425/975 275/424/976 287/436/977 286/437/978
f 275/424/979 276/435/980 288/447/981 287/436/982
f 276/435/983 265/434/984 277/446/985 288/447/986
f 242/375/987 241/374/988 289/448/989
f 243/376/990 242/375/991 289/448/992
f 244/377/993 243/376/994 289/448/995
f 245/378/996 244/377/997 289/448/998
f 246/379/999 245/378/1000 289/448/1001
f 247/380/1002 246/379/1003 289/448/1004
f 248/381/1005 247/380/1006 289/448/1007
f 249/382/1008 248/381/1009 289/448/1010
f 250/383/1011 249/382/1012 289/448/1013
f 251/384/1014 250/383/1015 289/448/1016
f 252/385/1017 251/384/1018 289/448/1019
f 241/374/1020 252/385/1021 289/448/1022
f 290/450/1023 291/451/1024 292/449/1025
f 291/451/1026 293/452/1027 292/449/1028
f 293/452/1029 294/453/1030 292/449/1031
f 294/453/1032 295/454/1033 292/449/1034
f 295/454/1035 296/455/1036 292/449/1037
f 296/455/1038 297/456/1039 292/449/1040
f 297/456/1041 298/457/1042 292/449/1043
f 298/457/1044 299/458/1045 292/449/1046
f 299/458/1047 300/459/1048 292/449/1049
f 300/459/1050 301/460/1051 292/449/1052
f 301/460/1053 302/461/1054 292/449/1055
f 302/461/1056 290/450/1057 292/449/1058
f 277/446/1059 278/445/1060 291/451/1061 290/450/1062
f 278/445/1063 279/444/1064 293/452/1065 291/451/1066
f 279/444/1067 280/443/1068 294/453/1069 293/452/1070
f 280/443/1071 281/442/1072 295/454/1073 294/453/1074
f 281/442/1075 282/441/1076 296/455/1077 295/454/1078
f 282/441/1079 283/440/1080 297/456/1081 296/455/1082
f 283/440/1083 284/439/1084 298/457/1085 297/456/1086
f 284/439/1087 285/438/1088 299/458/1089 298/457/1090
f 285/438/1091 286/437/1092 300/459/1093 299/458/1094
f 286/437/1095 287/436/1096 301/460/1097 300/459/1098
f 287/436/1099 288/447/1100 302/461/1101 301/460/1102
f 288/447/1103 277/446/1104 290/450/1105 302/461/1106
g pCube2 pCube3 pCube4 pCube7 pCube8 pCylinder1 pCylinder2 pCylinder3 pCylinder4 polySurface5 polySurface3 polySurface1 group
usemtl lambert2SG
f 303/462/1107 304/463/1108 306/465/1109 305/464/1110
f 305/464/1111 306/465/1112 308/467/1113 307/466/1114
f 307/466/1115 308/467/1116 310/469/1117 309/468/1118
f 309/468/1119 310/469/1120 304/471/1121 303/470/1122
f 304/463/1123 310/472/1124 308/473/1125 306/465/1126
f 309/474/1127 303/462/1128 305/464/1129 307/475/1130
g pCube2 pCube3 pCube4 pCube6 pCube8 pCylinder1 pCylinder2 pCylinder3 pCylinder4 polySurface5 polySurface3 polySurface1 group
f 311/476/1131 312/477/1132 314/479/1133 313/478/1134
f 313/478/1135 314/479/1136 316/481/1137 315/480/1138
f 315/480/1139 316/481/1140 318/483/1141 317/482/1142
f 317/482/1143 318/483/1144 312/485/1145 311/484/1146
f 312/477/1147 318/486/1148 316/487/1149 314/479/1150
f 317/488/1151 311/476/1152 313/478/1153 315/489/1154
g pCube2 pCube3 pCube4 pCube5 pCube8 pCylinder1 pCylinder2 pCylinder3 pCylinder4 polySurface5 polySurface3 polySurface1 group
f 319/490/1155 320/491/1156 322/493/1157 321/492/1158
f 321/492/1159 322/493/1160 324/495/1161 323/494/1162
f 323/494/1163 324/495/1164 326/497/1165 325/496/1166
f 325/496/1167 326/497/1168 320/499/1169 319/498/1170
f 320/491/1171 326/500/1172 324/501/1173 322/493/1174
f 325/502/1175 319/490/1176 321/492/1177 323/503/1178
